<?xml version="1.0" encoding="UTF-8"?>
<svg version="1.1" xmlns="http://www.w3.org/2000/svg" width="500" height="500">
<path d="M0 0 C165 0 330 0 500 0 C500 165 500 330 500 500 C335 500 170 500 0 500 C0 335 0 170 0 0 Z " fill="#9293D9" transform="translate(0,0)"/>
<path d="M0 0 C1.890625 0.24609375 1.890625 0.24609375 4 1 C5.046875 2.84765625 5.046875 2.84765625 5.75 5.0625 C5.99234375 5.79597656 6.2346875 6.52945313 6.484375 7.28515625 C6.65453125 7.85105469 6.8246875 8.41695312 7 9 C7.57331055 8.78794922 8.14662109 8.57589844 8.73730469 8.35742188 C32.94013565 -0.47714538 32.94013565 -0.47714538 43.5625 3.25 C46.10624029 5.07627508 47.59836489 6.19672977 49 9 C50.55245815 19.4236476 45.02649935 30.79285943 39 39 C31.6923879 47.8717414 31.6923879 47.8717414 27 51 C26 48 26 48 26.78515625 46.30517578 C27.20667969 45.6914209 27.62820313 45.07766602 28.0625 44.4453125 C28.5268042 43.75445557 28.9911084 43.06359863 29.46948242 42.35180664 C29.97455322 41.61696045 30.47962402 40.88211426 31 40.125 C32.02011359 38.58674384 33.0370221 37.04635759 34.05078125 35.50390625 C34.55303223 34.74094238 35.0552832 33.97797852 35.57275391 33.19189453 C43.15625797 21.55401344 43.15625797 21.55401344 44 8 C40.66697138 6.00018283 38.11083429 5.72999568 34.25 5.75 C33.26515625 5.74484375 32.2803125 5.7396875 31.265625 5.734375 C27.32107387 6.05522366 23.81645106 6.95914971 20 8 C19.93941406 9.14855469 19.87882812 10.29710937 19.81640625 11.48046875 C18.38412718 38.23174565 18.38412718 38.23174565 17 41 C14.62890625 40.76171875 14.62890625 40.76171875 12 40 C10.77734375 38.20703125 10.77734375 38.20703125 9.9375 35.8125 C9.62167969 34.92433594 9.30585938 34.03617188 8.98046875 33.12109375 C7.19639638 27.44191516 5.57587719 21.74069546 4 16 C-1.61 18.97 -7.22 21.94 -13 25 C-13 30.89348758 -12.87349363 36.31996258 -12.125 42.09765625 C-12.03621582 42.8173912 -11.94743164 43.53712616 -11.85595703 44.27867126 C-11.57575445 46.54062076 -11.28802718 48.80153499 -11 51.0625 C-10.80678927 52.61126553 -10.61407674 54.1600933 -10.421875 55.70898438 C-9.95366004 59.4733987 -9.47870203 63.2369055 -9 67 C-8.34 67 -7.68 67 -7 67 C-5.76464626 59.34800303 -4.66257422 51.72422049 -4 44 C-3.67 44 -3.34 44 -3 44 C-2.97281684 46.85423192 -2.95307295 49.70820015 -2.9375 52.5625 C-2.92912109 53.36236328 -2.92074219 54.16222656 -2.91210938 54.98632812 C-2.89676225 58.74637462 -3.03080092 62.20425875 -3.59375 65.9375 C-4.32357584 69.02403206 -4.32357584 69.02403206 -2.5625 71.4375 C-2.046875 71.953125 -1.53125 72.46875 -1 73 C-2.41995501 72.76940901 -3.83597978 72.51455862 -5.25 72.25 C-6.43335938 72.04117188 -6.43335938 72.04117188 -7.640625 71.828125 C-10 71 -10 71 -11.94140625 69.01953125 C-17.17142393 63.88875489 -27.24132897 64.05585187 -34.26953125 63.2890625 C-35.93012573 63.10645874 -35.93012573 63.10645874 -37.62426758 62.92016602 C-39.84502249 62.68487232 -42.06760488 62.46613605 -44.29174805 62.26538086 C-50.31432342 61.64512804 -54.3278589 60.95023041 -59 57 C-59.16188331 53.19574227 -58.82639474 51.05064256 -56.4453125 48.0234375 C-45.87515704 37.97990901 -32.59311592 30.19606624 -20 23 C-20 17.06 -20 11.12 -20 5 C-19.34 5 -18.68 5 -18 5 C-17.01 9.62 -16.02 14.24 -15 19 C-10.52244882 17.50748294 -6.77777506 15.99752948 -2.625 13.875 C-1.03558594 13.06675781 -1.03558594 13.06675781 0.5859375 12.2421875 C1.38257813 11.83226562 2.17921875 11.42234375 3 11 C2.87625 9.700625 2.7525 8.40125 2.625 7.0625 C2.52058594 5.96615234 2.52058594 5.96615234 2.4140625 4.84765625 C2.20910156 3.93306641 2.20910156 3.93306641 2 3 C1.34 2.67 0.68 2.34 0 2 C-0.33 2.66 -0.66 3.32 -1 4 C-0.67 2.68 -0.34 1.36 0 0 Z " fill="#0C0C0C" transform="translate(273,130)"/>
<path d="M0 0 C0 0.66 0 1.32 0 2 C0.66 2 1.32 2 2 2 C0.78908092 15.13847203 -7.47848959 26.38382917 -16 36 C-16.59039062 36.68449219 -17.18078125 37.36898437 -17.7890625 38.07421875 C-27.41496714 48.49886867 -42.53387886 57.93964071 -56.9375 58.5625 C-62.23901349 58.31483806 -65.24472687 56.75527313 -69 53 C-69.15252309 51.08759516 -69.22192773 49.16827201 -69.25 47.25 C-69.27578125 46.20328125 -69.3015625 45.1565625 -69.328125 44.078125 C-68.96287908 40.65177044 -67.96436627 38.79146786 -66 36 C-64.68 36.66 -63.36 37.32 -62 38 C-62.0825 36.948125 -62.165 35.89625 -62.25 34.8125 C-61.96403323 30.45150679 -61.09042536 28.99953049 -58 26 C-57.34 26 -56.68 26 -56 26 C-54.37485532 24.54166642 -54.37485532 24.54166642 -53 23 C-52.2265625 23.433125 -52.2265625 23.433125 -51.4375 23.875 C-45.65405209 26.66670813 -45.65405209 26.66670813 -39.5625 26.125 C-39.046875 25.75375 -38.53125 25.3825 -38 25 C-43.05009595 24.06213918 -43.05009595 24.06213918 -48 25 C-48.66 23.35 -49.32 21.7 -50 20 C-46.94010859 16.63411945 -43.65132724 13.84442133 -40 11.125 C-38.7625 10.20074219 -38.7625 10.20074219 -37.5 9.2578125 C-35 8 -35 8 -32.33203125 8.14453125 C-29.1416668 9.31486595 -27.90018722 11.25528513 -26 14 C-26.66 15.65 -27.32 17.3 -28 19 C-27.40703125 19.22429687 -26.8140625 19.44859375 -26.203125 19.6796875 C-23.35498583 21.38655104 -22.37197983 23.24967212 -20.75 26.125 C-20.22921875 27.03507812 -19.7084375 27.94515625 -19.171875 28.8828125 C-18.78515625 29.58148438 -18.3984375 30.28015625 -18 31 C-17.505 29.515 -17.505 29.515 -17 28 C-18.25949913 25.61596912 -18.25949913 25.61596912 -20 23 C-21.113704 20.78585038 -22.19615484 18.55575779 -23.25 16.3125 C-24.06210938 14.60513672 -24.06210938 14.60513672 -24.890625 12.86328125 C-25.25671875 11.91839844 -25.6228125 10.97351563 -26 10 C-25.67 9.34 -25.34 8.68 -25 8 C-24.34 8.99 -23.68 9.98 -23 11 C-22.7018576 7.2236068 -22.7018576 7.2236068 -24 5 C-22.66418119 2.32836237 -21.80122167 2.07365436 -19 1 C-16.13999334 0.4532993 -13.26875153 0.12566606 -10.375 -0.1875 C-9.59898437 -0.28224609 -8.82296875 -0.37699219 -8.0234375 -0.47460938 C-2.26000044 -1.13000022 -2.26000044 -1.13000022 0 0 Z " fill="#D7D7E3" transform="translate(279,230)"/>
<path d="M0 0 C2.76223278 2.76223278 2.57856291 5.20706617 3 9 C2.15953125 8.9278125 1.3190625 8.855625 0.453125 8.78125 C-3.7110835 9.04504601 -6.66668532 10.53373199 -10.25 12.5 C-16.79054054 16 -16.79054054 16 -19 16 C-19 16.66 -19 17.32 -19 18 C-20.65 18.33 -22.3 18.66 -24 19 C-24 19.66 -24 20.32 -24 21 C-24.99 21 -25.98 21 -27 21 C-26.35014905 25.71370756 -24.48438608 29.57686444 -22.4375 33.8125 C-22.10814453 34.50537109 -21.77878906 35.19824219 -21.43945312 35.91210938 C-20.63127749 37.61044948 -19.81631623 39.30555769 -19 41 C-18.67 39.35 -18.34 37.7 -18 36 C-17.67 36 -17.34 36 -17 36 C-16.77802415 38.10277123 -16.57286363 40.20732302 -16.375 42.3125 C-16.25898438 43.48425781 -16.14296875 44.65601563 -16.0234375 45.86328125 C-16 49 -16 49 -18 52 C-18.31453125 51.32453125 -18.6290625 50.6490625 -18.953125 49.953125 C-22.50587148 42.20501645 -22.50587148 42.20501645 -29 37 C-28.34 35.35 -27.68 33.7 -27 32 C-28.32 30.35 -29.64 28.7 -31 27 C-35.79132712 27.49627682 -39.02090287 29.80228492 -42.8125 32.5625 C-43.40998047 32.98724609 -44.00746094 33.41199219 -44.62304688 33.84960938 C-46.08740533 34.89223259 -47.54445735 35.94510452 -49 37 C-48.67 38.65 -48.34 40.3 -48 42 C-47.46375 41.814375 -46.9275 41.62875 -46.375 41.4375 C-44 41 -44 41 -41.125 41.5625 C-37.4960714 42.07055 -35.35901533 41.35960144 -32 40 C-34.6598561 43.44216672 -37.90288286 43.99504674 -42 45 C-42 48.63 -42 52.26 -42 56 C-42.33 56 -42.66 56 -43 56 C-43 52.37 -43 48.74 -43 45 C-43.9075 44.896875 -44.815 44.79375 -45.75 44.6875 C-49.01961575 43.99585051 -50.53717737 43.17865079 -53 41 C-53.66 42.98 -54.32 44.96 -55 47 C-55.33 46.01 -55.66 45.02 -56 44 C-59.70552952 46.88286741 -59.70552952 46.88286741 -61.33203125 51.11328125 C-61.3145776 53.07856214 -61.16596091 55.04166127 -61 57 C-62.65 56.34 -64.3 55.68 -66 55 C-68.97254892 59.9862111 -68.85587336 65.37793282 -68 71 C-65.39301386 74.10019974 -63.60273362 74.70319748 -59.6796875 75.4296875 C-44.93377902 76.53012843 -31.31055133 66.93646971 -20.54296875 57.94921875 C-9.71955584 47.8840134 -1.64651572 34.28218655 2 20 C0.68 20.33 -0.64 20.66 -2 21 C-1.34 19.68 -0.68 18.36 0 17 C0.66 17 1.32 17 2 17 C2.33 15.02 2.66 13.04 3 11 C3.33 11 3.66 11 4 11 C4.92717789 27.82656167 0.15795221 42.69702809 -10.76171875 55.5703125 C-21.29690267 67.00641092 -36.05897905 79.76369899 -52.1484375 81.30078125 C-58.92383532 81.57210725 -64.49169629 81.20584766 -70 77 C-74.7391001 72.01786912 -75.47196678 67.66483599 -75.41015625 60.98046875 C-74.30295265 52.93478927 -68.15281884 46.88893581 -63 41 C-63 40.34 -63 39.68 -63 39 C-63.66 39 -64.32 39 -65 39 C-65 37.02 -65 35.04 -65 33 C-66.03060547 33.10828125 -66.03060547 33.10828125 -67.08203125 33.21875 C-68.43361328 33.35796875 -68.43361328 33.35796875 -69.8125 33.5 C-70.70582031 33.5928125 -71.59914062 33.685625 -72.51953125 33.78125 C-75 34 -75 34 -78 34 C-78 32 -78 30 -78 28 C-77.4740625 28.7734375 -77.4740625 28.7734375 -76.9375 29.5625 C-74.91569826 31.38124201 -74.91569826 31.38124201 -71.375 30.8125 C-70.26125 30.544375 -69.1475 30.27625 -68 30 C-67.67 29.34 -67.34 28.68 -67 28 C-68.65 27.01 -70.3 26.02 -72 25 C-71.01 24.67 -70.02 24.34 -69 24 C-70.32 22.35 -71.64 20.7 -73 19 C-69.25732302 20.69448672 -66.66573877 22.98156168 -63.68359375 25.7578125 C-61.94636851 27.2968542 -61.94636851 27.2968542 -59 27 C-59.33 28.32 -59.66 29.64 -60 31 C-59.34 31.33 -58.68 31.66 -58 32 C-58.12375 31.278125 -58.2475 30.55625 -58.375 29.8125 C-57.93998169 26.54986264 -57.44438849 26.1958004 -55 24.1875 C-54.01 23.465625 -53.02 22.74375 -52 22 C-51.34 23.32 -50.68 24.64 -50 26 C-50.99 27.32 -51.98 28.64 -53 30 C-50.16137838 31.30595419 -50.16137838 31.30595419 -48.078125 30.2265625 C-45.94934061 28.97009953 -43.83840316 27.69765534 -41.75 26.375 C-40.5125 25.59125 -39.275 24.8075 -38 24 C-40.97 24 -43.94 24 -47 24 C-46.34 23.01 -45.68 22.02 -45 21 C-44.01 21.33 -43.02 21.66 -42 22 C-42 18.37 -42 14.74 -42 11 C-41.67 11 -41.34 11 -41 11 C-41 14.63 -41 18.26 -41 22 C-40.67 21.34 -40.34 20.68 -40 20 C-38.68 20.33 -37.36 20.66 -36 21 C-36 20.34 -36 19.68 -36 19 C-35.01 18.67 -34.02 18.34 -33 18 C-32.62243192 16.67851173 -32.2981424 15.34164079 -32 14 C-29.44444444 9.22222222 -29.44444444 9.22222222 -27 8 C-27.99 10.97 -28.98 13.94 -30 17 C-24.39667783 14.90408851 -24.39667783 14.90408851 -20 11 C-19.505 11.99 -19.505 11.99 -19 13 C-17.86820312 12.4225 -16.73640625 11.845 -15.5703125 11.25 C-14.08864793 10.49979009 -12.60687127 9.74980153 -11.125 9 C-10.00544922 8.42765625 -10.00544922 8.42765625 -8.86328125 7.84375 C-8.14785156 7.4828125 -7.43242187 7.121875 -6.6953125 6.75 C-5.7055542 6.24726563 -5.7055542 6.24726563 -4.69580078 5.734375 C-3 5 -3 5 -1 5 C-0.67 3.35 -0.34 1.7 0 0 Z " fill="#0E0E0F" transform="translate(279,212)"/>
<path d="M0 0 C7.73177802 0.4501763 13.88248297 1.80254664 19.4375 7.5 C22.17465941 11.87945505 22.11367668 15.6323322 22.0625 20.75 C22.05347656 21.92046875 22.04445313 23.0909375 22.03515625 24.296875 C22.02355469 25.18890625 22.01195312 26.0809375 22 27 C22.39832031 26.44570313 22.79664063 25.89140625 23.20703125 25.3203125 C24.00173828 24.23363281 24.00173828 24.23363281 24.8125 23.125 C25.33457031 22.40570313 25.85664063 21.68640625 26.39453125 20.9453125 C28 19 28 19 31 17 C36.22314481 17.23741567 39.66381853 19.31156749 44 22 C43.52403971 26.28364261 41.16126242 28.26023924 38 31 C32.48819379 34.76416034 26.47273631 34.69626318 20 35 C20 35.33 20 35.66 20 36 C15.6305794 35.74297526 13.48177009 35.39976667 10.0625 32.5625 C8 30 8 30 8 28 C6.7352222 26.34424606 6.7352222 26.34424606 5.125 24.625 C0.18391525 19.20651576 -0.27929715 15.40701419 -0.125 8.25 C-0.11597656 7.45722656 -0.10695313 6.66445313 -0.09765625 5.84765625 C-0.07417012 3.89830719 -0.03830137 1.94911425 0 0 Z " fill="#AFC4E9" transform="translate(323,269)"/>
<path d="M0 0 C0.12060791 1.04957886 0.12060791 1.04957886 0.24365234 2.12036133 C0.61708187 5.35151226 0.99601255 8.58199644 1.375 11.8125 C1.50132812 12.91271484 1.62765625 14.01292969 1.7578125 15.14648438 C2.58480743 22.15526643 3.64385236 29.0738981 5 36 C0.79254829 35.52188049 -3.15889986 34.72247209 -7.25 33.625 C-13.66310077 31.9605311 -20.12836514 30.95851175 -26.67675781 30.00244141 C-32.80902828 29.09548586 -32.80902828 29.09548586 -35 28 C-31.55970505 19.93061708 -9.29896633 0 0 0 Z " fill="#E0E0E9" transform="translate(255,158)"/>
<path d="M0 0 C0.495 0.99 0.495 0.99 1 2 C1.33 1.67 1.66 1.34 2 1 C2.495 2.485 2.495 2.485 3 4 C3.33 3.67 3.66 3.34 4 3 C4.68707555 5.49064888 5 7.37886292 5 10 C8.465 9.505 8.465 9.505 12 9 C11.4375 10.9375 11.4375 10.9375 10 13 C6.375 13.75 6.375 13.75 3 14 C2.34 13.01 1.68 12.02 1 11 C-1.20409437 16.18610439 -1.09889421 19.59710348 0 25 C0.66 25.33 1.32 25.66 2 26 C1.34 26 0.68 26 0 26 C0 26.99 0 27.98 0 29 C2.8424854 30.57273568 2.8424854 30.57273568 6 31 C5.7525 29.96875 5.505 28.9375 5.25 27.875 C4.94693476 23.17748885 6.10841007 21.59258142 9 18 C9.495 18.99 9.495 18.99 10 20 C9.06553465 22.03144641 8.06775224 24.03533587 7 26 C7.99 25.67 8.98 25.34 10 25 C9.67 27.64 9.34 30.28 9 33 C9.226875 32.195625 9.45375 31.39125 9.6875 30.5625 C10.120625 29.716875 10.55375 28.87125 11 28 C13.625 27.1875 13.625 27.1875 16 27 C16.9765625 33.0546875 16.9765625 33.0546875 17 35 C16.34 35.66 15.68 36.32 15 37 C14.34 37 13.68 37 13 37 C12.566875 37.495 12.13375 37.99 11.6875 38.5 C10 40 10 40 7.375 40.25 C5 40 5 40 4 39 C3.34 39.66 2.68 40.32 2 41 C-2.69978858 38.10782241 -2.69978858 38.10782241 -3.5546875 34.953125 C-3.78597215 32.97669255 -3.90062818 30.98743631 -4 29 C-3.01 29 -2.02 29 -1 29 C-1.3315629 25.9054129 -2.02882594 24.97195314 -4.3125 22.75 C-7.02415741 20.63621789 -7.02415741 20.63621789 -11 21 C-11.268125 22.093125 -11.53625 23.18625 -11.8125 24.3125 C-12.87663739 27.61692663 -13.34654664 28.94960422 -16 31 C-15.01 31.721875 -14.02 32.44375 -13 33.1875 C-10.05206503 35.6095123 -10.05206503 35.6095123 -9.625 38.8125 C-9.74875 39.534375 -9.8725 40.25625 -10 41 C-11.32 41 -12.64 41 -14 41 C-14 41.99 -14 42.98 -14 44 C-13.34 44 -12.68 44 -12 44 C-12.125 46.3125 -12.125 46.3125 -13 49 C-17.86206897 52 -17.86206897 52 -21 52 C-21.99 52.66 -22.98 53.32 -24 54 C-26.6875 54.125 -26.6875 54.125 -29 54 C-29 52 -29 52 -26.625 49.375 C-24 47 -24 47 -22 47 C-22 46.34 -22 45.68 -22 45 C-23.65 44.67 -25.3 44.34 -27 44 C-26.401875 43.855625 -25.80375 43.71125 -25.1875 43.5625 C-23.43849596 43.1127561 -21.71322977 42.57107659 -20 42 C-20.68707031 42.02320313 -21.37414062 42.04640625 -22.08203125 42.0703125 C-22.98308594 42.08835938 -23.88414062 42.10640625 -24.8125 42.125 C-25.70582031 42.14820313 -26.59914062 42.17140625 -27.51953125 42.1953125 C-30 42 -30 42 -33 40 C-33 39.34 -33 38.68 -33 38 C-29.04 37.34 -25.08 36.68 -21 36 C-21 35.67 -21 35.34 -21 35 C-22.7015625 34.814375 -22.7015625 34.814375 -24.4375 34.625 C-25.613125 34.41875 -26.78875 34.2125 -28 34 C-28.33 33.34 -28.66 32.68 -29 32 C-26.69 32.33 -24.38 32.66 -22 33 C-21.67 32.34 -21.34 31.68 -21 31 C-20.38125 30.731875 -19.7625 30.46375 -19.125 30.1875 C-15.70202003 28.27465825 -14.40549073 25.36392337 -13.3125 21.6875 C-13.209375 21.130625 -13.10625 20.57375 -13 20 C-13.99 19.67 -14.98 19.34 -16 19 C-15.67 18.34 -15.34 17.68 -15 17 C-12.69 17.33 -10.38 17.66 -8 18 C-6.14223235 14.86501708 -5.79859524 12.62528568 -6 9 C-8.39719432 8.32041397 -8.39719432 8.32041397 -11 8 C-11.66 8.66 -12.32 9.32 -13 10 C-12.67 10.66 -12.34 11.32 -12 12 C-14.64 12 -17.28 12 -20 12 C-19.4225 11.7525 -18.845 11.505 -18.25 11.25 C-14.54418357 9.19121309 -12.33327097 6.49990645 -10 3 C-9.67 3.66 -9.34 4.32 -9 5 C-8.67 4.34 -8.34 3.68 -8 3 C-4.125 4.875 -4.125 4.875 -3 6 C-2.01 4.02 -1.02 2.04 0 0 Z " fill="#69617C" transform="translate(206,133)"/>
<path d="M0 0 C15.01141911 -0.85943239 15.01141911 -0.85943239 18.875 2 C21.50155552 5.70807838 22.38552691 8.47464841 22 13 C20.67893327 16.49694135 19.52469772 17.67947981 16.33984375 19.625 C12.5040775 21.20416926 9.75339351 21.30434133 5.625 21.1875 C4.37976563 21.16042969 3.13453125 21.13335937 1.8515625 21.10546875 C0.91054688 21.07066406 -0.03046875 21.03585937 -1 21 C-0.34 20.67 0.32 20.34 1 20 C1.02689449 17.04160645 1.04678741 14.08345573 1.0625 11.125 C1.07087891 10.28324219 1.07925781 9.44148438 1.08789062 8.57421875 C1.09272461 7.36572266 1.09272461 7.36572266 1.09765625 6.1328125 C1.10551147 5.01737061 1.10551147 5.01737061 1.11352539 3.87939453 C1.11786636 1.90867432 1.11786636 1.90867432 0 0 Z " fill="#0F0F11" transform="translate(286,315)"/>
<path d="M0 0 C1.71962123 5.40833809 0.95099439 11.178879 0.75805664 16.77734375 C0.68890687 18.83317361 0.63383875 20.88903035 0.58007812 22.9453125 C0.31376772 31.75943065 -0.55718589 40.28857307 -2 49 C-2.99 48.67 -3.98 48.34 -5 48 C-7.48823887 41.68094733 -7.88270285 34.82839773 -8.625 28.125 C-8.7590625 26.99191406 -8.893125 25.85882813 -9.03125 24.69140625 C-9.39782356 21.46331456 -9.71536759 18.23627046 -10 15 C-10.08604492 14.10901611 -10.17208984 13.21803223 -10.26074219 12.30004883 C-10.3984375 9.90234375 -10.3984375 9.90234375 -10 6 C-7.8125 3.80859375 -7.8125 3.80859375 -5 2.4375 C-4.071875 1.96183594 -3.14375 1.48617187 -2.1875 0.99609375 C-1.465625 0.66738281 -0.74375 0.33867187 0 0 Z " fill="#D9DDE7" transform="translate(269,149)"/>
<path d="M0 0 C1.875 0.3125 1.875 0.3125 4 1 C6 4 6 4 5.75 7.0625 C5 10 5 10 3 12 C-0.125 11.625 -0.125 11.625 -3 11 C-2.773125 11.886875 -2.54625 12.77375 -2.3125 13.6875 C-1.93839459 17.65301731 -2.63590541 18.87601786 -5 22 C-5.391875 22.5775 -5.78375 23.155 -6.1875 23.75 C-9.0969046 25.75648593 -12.49840301 26.1482531 -16 26 C-16.99 25.34 -17.98 24.68 -19 24 C-19 23.01 -19 22.02 -19 21 C-19.66 21.99 -20.32 22.98 -21 24 C-21.6875 22.25 -21.6875 22.25 -22 20 C-20.6875 17.75 -20.6875 17.75 -19 16 C-18.34 16 -17.68 16 -17 16 C-16.34 13.69 -15.68 11.38 -15 9 C-14.67 10.32 -14.34 11.64 -14 13 C-13.34 13 -12.68 13 -12 13 C-11.87625 12.236875 -11.7525 11.47375 -11.625 10.6875 C-11 8 -11 8 -9 5 C-8.030625 4.855625 -7.06125 4.71125 -6.0625 4.5625 C-2.89216563 4.30007125 -2.89216563 4.30007125 -1.125 1.9375 C-0.75375 1.298125 -0.3825 0.65875 0 0 Z " fill="#B3A6D1" transform="translate(195,140)"/>
<path d="M0 0 C2.31 0.33 4.62 0.66 7 1 C8 5.75 8 5.75 8 8 C8.33 7.34 8.66 6.68 9 6 C9.66 6 10.32 6 11 6 C11.33 5.01 11.66 4.02 12 3 C15.41021743 3.78697325 18.68885166 4.87119943 22 6 C22.66 4.68 23.32 3.36 24 2 C24.66 3.32 25.32 4.64 26 6 C25.05125 6.433125 24.1025 6.86625 23.125 7.3125 C19.79958063 8.79302201 19.79958063 8.79302201 18 12 C17.60986284 13.9896995 17.26797351 15.99019869 17 18 C16.38125 17.195625 15.7625 16.39125 15.125 15.5625 C13.25835959 12.96125481 13.25835959 12.96125481 11 12 C10.67 12.99 10.34 13.98 10 15 C7 16 7 16 4 17 C3.67 17.99 3.34 18.98 3 20 C1.35 20.33 -0.3 20.66 -2 21 C-2 18.69 -2 16.38 -2 14 C-3.65 13.67 -5.3 13.34 -7 13 C-6.67 10.03 -6.34 7.06 -6 4 C-4.02 3.34 -2.04 2.68 0 2 C0 1.34 0 0.68 0 0 Z " fill="#B4A8D0" transform="translate(187,124)"/>
<path d="M0 0 C0.33 1.32 0.66 2.64 1 4 C2.32 4.33 3.64 4.66 5 5 C5 6.65 5 8.3 5 10 C5.33 9.34 5.66 8.68 6 8 C8.0625 7.375 8.0625 7.375 10 7 C10 8.65 10 10.3 10 12 C11.32 12.33 12.64 12.66 14 13 C13.67 15.31 13.34 17.62 13 20 C11.95199219 19.7834375 11.95199219 19.7834375 10.8828125 19.5625 C9.97273438 19.376875 9.06265625 19.19125 8.125 19 C7.22007812 18.814375 6.31515625 18.62875 5.3828125 18.4375 C3.07592097 17.93980405 3.07592097 17.93980405 1 18 C-2 17 -2 17 -5 15 C-5.99 14.67 -6.98 14.34 -8 14 C-8 14.66 -8 15.32 -8 16 C-7.34 16.66 -6.68 17.32 -6 18 C-8.31 18.33 -10.62 18.66 -13 19 C-15.19097652 15.6659053 -16.43454163 12.95820859 -17 9 C-11.20575649 5.40941825 -7.69596042 4.56515134 -1 6 C-3.60097682 4.69951159 -6.13955062 4.43528578 -9 4 C-9 3.34 -9 2.68 -9 2 C-5.5647952 -0.29013653 -4.014669 -0.17842973 0 0 Z " fill="#B7ADD1" transform="translate(198,105)"/>
<path d="M0 0 C0 1.98 0 3.96 0 6 C0.66 6 1.32 6 2 6 C2.33 6.99 2.66 7.98 3 9 C2.51789063 9.47050781 2.03578125 9.94101563 1.5390625 10.42578125 C0.59160156 11.35970703 0.59160156 11.35970703 -0.375 12.3125 C-1.31472656 13.23482422 -1.31472656 13.23482422 -2.2734375 14.17578125 C-4.18086607 16.08812528 -4.18086607 16.08812528 -6 19 C-8.53125 19.546875 -8.53125 19.546875 -11.5 19.75 C-12.4796875 19.82734375 -13.459375 19.9046875 -14.46875 19.984375 C-17 20 -17 20 -19 19 C-19.45356243 12.53673535 -18.59378942 9.39068413 -15 4 C-14.34 4.66 -13.68 5.32 -13 6 C-12.34 5.34 -11.68 4.68 -11 4 C-11.66 3.67 -12.32 3.34 -13 3 C-9.02319261 -1.5733285 -5.71367679 -1.16870662 0 0 Z " fill="#BBB2D2" transform="translate(214,245)"/>
<path d="M0 0 C0.99 0 1.98 0 3 0 C3.33 2.64 3.66 5.28 4 8 C3.01 7.67 2.02 7.34 1 7 C1.825 7.78375 2.65 8.5675 3.5 9.375 C6 12 6 12 6 14 C5.01 14.495 5.01 14.495 4 15 C4.99 15.33 5.98 15.66 7 16 C4.702779 17.74271938 2.40133271 19.39911152 0 21 C2.11785113 22.11785113 2.11785113 22.11785113 5 23 C4.6875 24.875 4.6875 24.875 4 27 C1 29 1 29 -1.9375 28.875 C-5.48899733 27.86028648 -6.88033094 27.01645212 -9 24 C-9.31452272 20.85477278 -9.42041821 18.84083641 -8 16 C-7.01 15.67 -6.02 15.34 -5 15 C-5.66 14.34 -6.32 13.68 -7 13 C-8.822344 9.7197808 -9.11363013 8.45452053 -8.1875 4.75 C-7 2 -7 2 -6 1 C-4.33333333 1 -2.66666667 1 -1 1 C-0.67 0.67 -0.34 0.34 0 0 Z " fill="#A695CA" transform="translate(170,129)"/>
<path d="M0 0 C2.54374029 1.82627508 4.03586489 2.94672977 5.4375 5.75 C6.98995815 16.1736476 1.46399935 27.54285943 -4.5625 35.75 C-11.8701121 44.6217414 -11.8701121 44.6217414 -16.5625 47.75 C-17.5625 44.75 -17.5625 44.75 -16.77734375 43.05517578 C-16.14505859 42.13454346 -16.14505859 42.13454346 -15.5 41.1953125 C-15.0356958 40.50445557 -14.5713916 39.81359863 -14.09301758 39.10180664 C-13.33541138 37.99953735 -13.33541138 37.99953735 -12.5625 36.875 C-11.54238641 35.33674384 -10.5254779 33.79635759 -9.51171875 32.25390625 C-9.00946777 31.49094238 -8.5072168 30.72797852 -7.98974609 29.94189453 C-0.40624203 18.30401344 -0.40624203 18.30401344 0.4375 4.75 C-5.07348272 1.44341037 -11.97227374 2.11514292 -18.125 3.203125 C-19.95315249 3.66016312 -21.7614143 4.19581979 -23.5625 4.75 C-22.61172839 1.89768516 -21.87935782 0.91676728 -19.1875 -0.5 C-12.72012472 -1.83807764 -6.28185165 -2.20415847 0 0 Z " fill="#090A0B" transform="translate(316.5625,133.25)"/>
<path d="M0 0 C0.99 0.66 1.98 1.32 3 2 C2.42302981 6.7059131 0.34505063 10.34624802 -2 14.375 C-2.60448975 15.43219238 -2.60448975 15.43219238 -3.22119141 16.51074219 C-5.87539191 21.12952596 -8.61316228 25.69508459 -11.375 30.25 C-26.90037664 54.1566791 -26.90037664 54.1566791 -33.0625 81.25 C-33.04896484 82.86648438 -33.04896484 82.86648438 -33.03515625 84.515625 C-33.02355469 85.33546875 -33.01195312 86.1553125 -33 87 C-33.99 87 -34.98 87 -36 87 C-38.71813371 81.56373258 -36.79664002 74.29600614 -35.28515625 68.70703125 C-28.09411897 47.96449515 -15.54776489 29.34025195 -3.74462891 11.00146484 C-3.26815918 10.25719238 -2.79168945 9.51291992 -2.30078125 8.74609375 C-1.66910034 7.76660767 -1.66910034 7.76660767 -1.0246582 6.76733398 C0.15668261 4.8670533 0.15668261 4.8670533 1 2 C0.0925 2.61875 -0.815 3.2375 -1.75 3.875 C-4.14948817 5.44389611 -6.40961612 6.80443821 -9 8 C-3.85714286 1.42857143 -3.85714286 1.42857143 0 0 Z " fill="#0D0E10" transform="translate(346,196)"/>
<path d="M0 0 C0 3.95702268 -1.23833431 6.47666862 -3 10 C-4.32392972 11.01241685 -5.65599167 12.01439389 -7 13 C-7.8042208 15.59855733 -7.8042208 15.59855733 -8 18 C-7.34 18 -6.68 18 -6 18 C-6 17.34 -6 16.68 -6 16 C-5.34 16 -4.68 16 -4 16 C-4 15.34 -4 14.68 -4 14 C-4.66 13.67 -5.32 13.34 -6 13 C-4.68 13.33 -3.36 13.66 -2 14 C-2 14.66 -2 15.32 -2 16 C-1.01 16 -0.02 16 1 16 C1 16.66 1 17.32 1 18 C1.66 18.33 2.32 18.66 3 19 C2.01 19.66 1.02 20.32 0 21 C0.99 21.33 1.98 21.66 3 22 C3.38800781 21.51917969 3.77601563 21.03835937 4.17578125 20.54296875 C6.54088647 18.54250502 8.12691453 18.51123932 11.1875 18.3125 C12.08855469 18.24675781 12.98960937 18.18101562 13.91796875 18.11328125 C14.60503906 18.07589844 15.29210937 18.03851563 16 18 C15.67 17.01 15.34 16.02 15 15 C14.34 14.67 13.68 14.34 13 14 C14.32 13.01 15.64 12.02 17 11 C17 11.99 17 12.98 17 14 C19.475 14.495 19.475 14.495 22 15 C22 15.66 22 16.32 22 17 C20.35 17 18.7 17 17 17 C17 17.66 17 18.32 17 19 C13.78548731 20.60725635 10.56387464 20.05748185 7 20 C7 21.32 7 22.64 7 24 C2.05 23.67 -2.9 23.34 -8 23 C-8.33 21.68 -8.66 20.36 -9 19 C-10.32 19.33 -11.64 19.66 -13 20 C-13.33 18.35 -13.66 16.7 -14 15 C-13.34 15 -12.68 15 -12 15 C-11.86722656 14.38511719 -11.73445313 13.77023438 -11.59765625 13.13671875 C-11.42105469 12.32847656 -11.24445313 11.52023438 -11.0625 10.6875 C-10.88847656 9.88699219 -10.71445312 9.08648437 -10.53515625 8.26171875 C-10 6 -10 6 -9 3 C-9.66 2.34 -10.32 1.68 -11 1 C-7.32589215 -0.17571451 -3.83070817 -0.07366746 0 0 Z " fill="#96A6C2" transform="translate(337,154)"/>
<path d="M0 0 C1.65 0 3.3 0 5 0 C5 1.98 5 3.96 5 6 C1.37 6.33 -2.26 6.66 -6 7 C-6 7.66 -6 8.32 -6 9 C-5.46375 9.103125 -4.9275 9.20625 -4.375 9.3125 C-1.37497956 10.18092697 1.2379535 11.55620296 4 13 C3.67 13.99 3.34 14.98 3 16 C0.13275314 15.42655063 -0.8614515 15.1385485 -3 13 C-4.175625 12.67 -5.35125 12.34 -6.5625 12 C-8.2640625 11.505 -8.2640625 11.505 -10 11 C-10.33 10.34 -10.66 9.68 -11 9 C-11.350625 9.66 -11.70125 10.32 -12.0625 11 C-14 13 -14 13 -17.375 13.4375 C-23.18019093 12.73687351 -23.18019093 12.73687351 -26 10 C-26.71712013 7.00403147 -26.92910793 4.07413798 -27 1 C-25.515 1.99 -25.515 1.99 -24 3 C-24.33 3.99 -24.66 4.98 -25 6 C-24.195625 5.79375 -23.39125 5.5875 -22.5625 5.375 C-18.04221683 4.89918072 -14.34885474 5.83064128 -10 7 C-10 5.68 -10 4.36 -10 3 C-6.7 2.67 -3.4 2.34 0 2 C0 1.34 0 0.68 0 0 Z " fill="#A4BAE2" transform="translate(354,171)"/>
<path d="M0 0 C1.10868317 3.32604951 1.54177532 6.53058454 2 10 C2.66 10 3.32 10 4 10 C4.33 9.01 4.66 8.02 5 7 C6.31059063 15.59164969 6.31059063 15.59164969 5 20 C4.731875 20.9075 4.46375 21.815 4.1875 22.75 C3.795625 23.4925 3.40375 24.235 3 25 C2.401875 25.144375 1.80375 25.28875 1.1875 25.4375 C-3.22104873 26.57112682 -5.58767109 31.38150663 -8 35 C-8 33.68 -8 32.36 -8 31 C-8.66 30.67 -9.32 30.34 -10 30 C-8.68 29.01 -7.36 28.02 -6 27 C-7.35997859 24.28004282 -9.34062482 23.32968759 -12 22 C-9.36 20.35 -6.72 18.7 -4 17 C-5.32 16.67 -6.64 16.34 -8 16 C-6.35 15.34 -4.7 14.68 -3 14 C-3.33 12.35 -3.66 10.7 -4 9 C-3.34 9 -2.68 9 -2 9 C-2.226875 8.071875 -2.45375 7.14375 -2.6875 6.1875 C-3 3 -3 3 -1.5625 1.125 C-1.046875 0.75375 -0.53125 0.3825 0 0 Z " fill="#4C465A" transform="translate(180,128)"/>
<path d="M0 0 C2.99675947 1.19870379 5.63532243 2.80422797 8 5 C8 6.32 8 7.64 8 9 C7.01 9 6.02 9 5 9 C7.2912414 16.23339137 7.2912414 16.23339137 12 22 C10.68 22.33 9.36 22.66 8 23 C7.67 22.34 7.34 21.68 7 21 C4.36 21 1.72 21 -1 21 C-1.226875 20.0925 -1.45375 19.185 -1.6875 18.25 C-3.18127977 14.55111676 -4.75400577 13.22094342 -8 11 C-7.38125 10.278125 -6.7625 9.55625 -6.125 8.8125 C-4.15514232 6.20533543 -3.1696066 4.00755983 -2 1 C-1.34 0.67 -0.68 0.34 0 0 Z " fill="#B7ADCF" transform="translate(197,153)"/>
<path d="M0 0 C-0.24832357 4.4390624 -0.52748261 8.87565442 -0.8125 13.3125 C-0.88275391 14.57513672 -0.95300781 15.83777344 -1.02539062 17.13867188 C-1.10595703 18.34716797 -1.18652344 19.55566406 -1.26953125 20.80078125 C-1.33760986 21.91622314 -1.40568848 23.03166504 -1.47583008 24.1809082 C-2.03591618 27.19316446 -2.60718351 28.16953756 -5 30 C-8.37558682 21.64140407 -11.28345904 13.09768526 -11 4 C-9.5437455 3.32880451 -8.08492133 2.66318193 -6.625 2 C-5.81289063 1.62875 -5.00078125 1.2575 -4.1640625 0.875 C-2 0 -2 0 0 0 Z " fill="#CDD5E7" transform="translate(292,139)"/>
<path d="M0 0 C2.93307315 0.87199472 4.70723066 1.68703967 6.8125 3.9375 C8.60800078 8.56800202 8.23208546 13.09182224 8 18 C5.50935112 18.68707555 3.62113708 19 1 19 C1.20625 18.401875 1.4125 17.80375 1.625 17.1875 C2.30671915 14.71549154 2.30671915 14.71549154 0 12 C-0.66 13.65 -1.32 15.3 -2 17 C-2.33 15.68 -2.66 14.36 -3 13 C-3.268125 13.598125 -3.53625 14.19625 -3.8125 14.8125 C-4.99086308 16.98316883 -6.23060981 18.30817212 -8 20 C-9.03585445 15.93191706 -9.75780361 12.52577908 -7.8359375 8.65625 C-3.8952 3.2984 -3.8952 3.2984 0 2 C0 1.34 0 0.68 0 0 Z " fill="#D4D1E1" transform="translate(229,216)"/>
<path d="M0 0 C0.33 0.66 0.66 1.32 1 2 C0.06553465 4.03144641 -0.93224776 6.03533587 -2 8 C-1.01 7.67 -0.02 7.34 1 7 C0.67 9.64 0.34 12.28 0 15 C0.226875 14.195625 0.45375 13.39125 0.6875 12.5625 C1.120625 11.716875 1.55375 10.87125 2 10 C4.625 9.1875 4.625 9.1875 7 9 C7.9765625 15.0546875 7.9765625 15.0546875 8 17 C7.34 17.66 6.68 18.32 6 19 C5.34 19 4.68 19 4 19 C3.566875 19.495 3.13375 19.99 2.6875 20.5 C1 22 1 22 -1.625 22.25 C-4 22 -4 22 -5 21 C-5.66 21.66 -6.32 22.32 -7 23 C-11.69978858 20.10782241 -11.69978858 20.10782241 -12.5546875 16.953125 C-12.78597215 14.97669255 -12.90062818 12.98743631 -13 11 C-12.01 11 -11.02 11 -10 11 C-10 9.68 -10 8.36 -10 7 C-9.01 7.33 -8.02 7.66 -7 8 C-7.66 8 -8.32 8 -9 8 C-9 8.99 -9 9.98 -9 11 C-6.1575146 12.57273568 -6.1575146 12.57273568 -3 13 C-3.2475 11.96875 -3.495 10.9375 -3.75 9.875 C-4.05306524 5.17748885 -2.89158993 3.59258142 0 0 Z " fill="#847F90" transform="translate(215,151)"/>
<path d="M0 0 C0.66 0.33 1.32 0.66 2 1 C0.57082242 4.9555016 -1.33560397 8.2292555 -3.625 11.75 C-6.90533924 16.94120909 -9.74293742 22.26527863 -12.375 27.8125 C-12.70838379 28.50504883 -13.04176758 29.19759766 -13.38525391 29.91113281 C-15.53393796 34.53516269 -16.89608468 39.02123038 -18 44 C-10.19815292 40.41944216 -4.80675379 35.24316952 1 29 C1 32 1 32 -0.9765625 34.33984375 C-10.74702236 43.92296441 -10.74702236 43.92296441 -15 46 C-17.875 45.75 -17.875 45.75 -20 45 C-21.3243436 39.86122961 -20.48506215 36.29847546 -18.5625 31.5 C-18.15632446 30.45767212 -18.15632446 30.45767212 -17.74194336 29.39428711 C-13.40091348 18.63767716 -7.50372144 8.86377095 0 0 Z " fill="#0C0C0D" transform="translate(305,207)"/>
<path d="M0 0 C0 2.97 0 5.94 0 9 C-9.9 10.485 -9.9 10.485 -20 12 C-20 12.33 -20 12.66 -20 13 C-21.65 13 -23.3 13 -25 13 C-24.42415568 15.38564077 -23.77772405 17.66682784 -23 20 C-23.66 20.99 -24.32 21.98 -25 23 C-25.268125 22.38125 -25.53625 21.7625 -25.8125 21.125 C-26.95556848 18.7004767 -26.95556848 18.7004767 -30 17 C-29.67 15.68 -29.34 14.36 -29 13 C-28.01 13 -27.02 13 -26 13 C-26 12.34 -26 11.68 -26 11 C-24.35 10.67 -22.7 10.34 -21 10 C-21 9.34 -21 8.68 -21 8 C-18.44342265 6.65411674 -15.88076095 5.32324672 -13.3125 4 C-12.2306543 3.42765625 -12.2306543 3.42765625 -11.12695312 2.84375 C-7.29453447 0.8837916 -4.42628851 -0.55874253 0 0 Z " fill="#D6DDEB" transform="translate(281,220)"/>
<path d="M0 0 C5.640625 -0.2421875 5.640625 -0.2421875 8.875 1.9375 C11.37789484 5.54461315 11.682981 7.60875409 11.41796875 11.90625 C11 14 11 14 9.375 16.5625 C6.37703045 18.37706052 4.44683871 18.38298208 1 18 C0 17 0 17 -0.09765625 13.18359375 C-0.09098089 11.60153318 -0.07901875 10.01948841 -0.0625 8.4375 C-0.05798828 7.63119141 -0.05347656 6.82488281 -0.04882812 5.99414062 C-0.03700518 3.99606244 -0.01906914 1.99802217 0 0 Z " fill="#C9D5EA" transform="translate(292,316)"/>
<path d="M0 0 C0 1.65 0 3.3 0 5 C-0.66 4.67 -1.32 4.34 -2 4 C-2 3.34 -2 2.68 -2 2 C-4.31 2 -6.62 2 -9 2 C-9.33 3.32 -9.66 4.64 -10 6 C-8.4221875 6.3403125 -8.4221875 6.3403125 -6.8125 6.6875 C-2.79787948 7.85672756 -0.49766302 9.56571334 2 13 C2 16.1875 2 16.1875 1 19 C-2.52679099 21.35119399 -4.02879485 21.21443452 -8.1875 21.125 C-9.27417969 21.10695313 -10.36085937 21.08890625 -11.48046875 21.0703125 C-12.72763672 21.03550781 -12.72763672 21.03550781 -14 21 C-14 18.69 -14 16.38 -14 14 C-13.34 14 -12.68 14 -12 14 C-11.34 15.32 -10.68 16.64 -10 18 C-7.69 18 -5.38 18 -3 18 C-3 16.68 -3 15.36 -3 14 C-3.55429688 13.73445313 -4.10859375 13.46890625 -4.6796875 13.1953125 C-5.40414062 12.84210938 -6.12859375 12.48890625 -6.875 12.125 C-7.59429687 11.77695312 -8.31359375 11.42890625 -9.0546875 11.0703125 C-11 10 -11 10 -13 8 C-13.42499738 4.67085389 -13.59769154 2.80558425 -11.5625 0.0625 C-7.64726537 -1.56088997 -4.09325725 -0.72594092 0 0 Z " fill="#0D0C0F" transform="translate(199,315)"/>
<path d="M0 0 C0.66 0.33 1.32 0.66 2 1 C2 1.66 2 2.32 2 3 C3.78612311 4.80693756 3.78612311 4.80693756 6 6.625 C6.7425 7.25664062 7.485 7.88828125 8.25 8.5390625 C8.8275 9.02117187 9.405 9.50328125 10 10 C9.01 10.33 8.02 10.66 7 11 C8.98 11.99 10.96 12.98 13 14 C13 14.99 13 15.98 13 17 C9.62816093 17.72019864 6.45187829 18.20616118 3 18 C-0.98885123 14.59285624 -2.78878814 11.06506777 -4 6 C-4 4.68 -4 3.36 -4 2 C-2.125 0.9375 -2.125 0.9375 0 0 Z " fill="#C5BDDD" transform="translate(201,226)"/>
<path d="M0 0 C2.31 0 4.62 0 7 0 C6.67 0.66 6.34 1.32 6 2 C5.90284658 4.33168218 5.87021783 6.66629957 5.875 9 C5.87113281 10.8871875 5.87113281 10.8871875 5.8671875 12.8125 C5.77772642 15.89677818 5.77772642 15.89677818 7 18 C10.41642759 18.25015873 10.41642759 18.25015873 14 18 C16.39740646 14.40389031 16.23987692 12.69907673 16.1875 8.4375 C16.18105469 7.28121094 16.17460937 6.12492187 16.16796875 4.93359375 C16.19771176 2.06596198 16.19771176 2.06596198 15 0 C16.98 0 18.96 0 21 0 C20.67 0.66 20.34 1.32 20 2 C19.76097348 5.24456369 19.61739313 8.48805847 19.4765625 11.73828125 C18.96677093 15.22742846 18.0833293 17.18288723 16 20 C13.71273777 21.14363112 12.17147573 21.26501932 9.625 21.375 C8.46871094 21.44847656 8.46871094 21.44847656 7.2890625 21.5234375 C5 21 5 21 2.7578125 18.99609375 C0.488179 15.12762954 0.33665135 12.09490258 0.25 7.6875 C0.22035156 6.94693359 0.19070312 6.20636719 0.16015625 5.44335938 C0.08994155 3.62947954 0.04264952 1.81473722 0 0 Z " fill="#090909" transform="translate(250,315)"/>
<path d="M0 0 C1.98 0 3.96 0 6 0 C6 0.66 6 1.32 6 2 C5.13375 2.8353125 5.13375 2.8353125 4.25 3.6875 C0.35286917 7.69288447 -1.82258473 11.19627808 -2.375 16.8125 C-2.32316171 20.08993448 -2.32316171 20.08993448 0 22 C-3.3 22 -6.6 22 -10 22 C-9.34 21.34 -8.68 20.68 -8 20 C-6.83139396 12.98836374 -10.23907769 8.69868283 -14 3 C-14.33 2.34 -14.66 1.68 -15 1 C-12.69 1 -10.38 1 -8 1 C-7.01 4.3 -6.02 7.6 -5 11 C-1.08256417 7.29139967 -1.08256417 7.29139967 0.125 2.3125 C0.063125 1.1678125 0.063125 1.1678125 0 0 Z " fill="#070809" transform="translate(336,314)"/>
<path d="M0 0 C7.66996912 0.48530754 12.84621169 2.14316209 18.34375 7.61328125 C21.54787279 11.27383179 22.91920367 14.23509531 22.96484375 19.0546875 C22.97902344 19.7353125 22.99320312 20.4159375 23.0078125 21.1171875 C22.77734375 23.0546875 22.77734375 23.0546875 20.77734375 26.0546875 C20.69097656 25.10207031 20.60460937 24.14945312 20.515625 23.16796875 C20.37511719 21.91371094 20.23460937 20.65945313 20.08984375 19.3671875 C19.96222656 18.12582031 19.83460938 16.88445312 19.703125 15.60546875 C18.34841626 10.40956053 15.49881673 8.11104592 11.02734375 5.3671875 C7.01746346 3.74781277 3.01673225 2.85546088 -1.22265625 2.0546875 C-1.23471202 16.14983937 -1.23471202 16.14983937 5.77734375 28.0546875 C6.10734375 28.7146875 6.43734375 29.3746875 6.77734375 30.0546875 C2.26715788 28.18197989 0.3950489 25.4784331 -2.0234375 21.3359375 C-4.39319148 14.8519201 -3.8279269 7.85057439 -3.22265625 1.0546875 C-2.22265625 0.0546875 -2.22265625 0.0546875 0 0 Z " fill="#2B2D35" transform="translate(324.22265625,266.9453125)"/>
<path d="M0 0 C7.26 0 14.52 0 22 0 C22 1.65 22 3.3 22 5 C21.62875 4.525625 21.2575 4.05125 20.875 3.5625 C18.38006257 1.48338547 16.16711301 1.44202255 13 1 C13.08670137 3.95980532 13.19353023 6.91646869 13.3125 9.875 C13.33505859 10.71675781 13.35761719 11.55851562 13.38085938 12.42578125 C13.41630859 13.23144531 13.45175781 14.03710938 13.48828125 14.8671875 C13.51446533 15.61081543 13.54064941 16.35444336 13.56762695 17.12060547 C13.86729591 19.40733826 13.86729591 19.40733826 17 21 C13.04 21 9.08 21 5 21 C5.99 20.34 6.98 19.68 8 19 C8.50531866 17.07558585 8.50531866 17.07558585 8.51171875 14.8671875 C8.54716797 14.06152344 8.58261719 13.25585938 8.61914062 12.42578125 C8.64169922 11.58402344 8.66425781 10.74226563 8.6875 9.875 C8.72166016 9.02550781 8.75582031 8.17601562 8.79101562 7.30078125 C8.87359173 5.20098895 8.93846978 3.10051436 9 1 C4.03088634 2.12697043 4.03088634 2.12697043 0 5 C0 3.35 0 1.7 0 0 Z " fill="#030304" transform="translate(214,315)"/>
<path d="M0 0 C3 1 3 1 4 3 C4.99 2.67 5.98 2.34 7 2 C7.125 6.75 7.125 6.75 6 9 C6.39938767 11.09821215 6.39938767 11.09821215 7 13 C5.39884424 13.2493357 3.79379841 13.47378648 2.1875 13.6875 C1.29417969 13.81511719 0.40085937 13.94273437 -0.51953125 14.07421875 C-3 14 -3 14 -4.75 12.65625 C-6.10757195 10.85746717 -7.07930188 9.05386503 -8 7 C-6.02 6.34 -4.04 5.68 -2 5 C-2 4.01 -2 3.02 -2 2 C-1.34 2 -0.68 2 0 2 C0 1.34 0 0.68 0 0 Z " fill="#A6BCE3" transform="translate(346,159)"/>
<path d="M0 0 C0.33 0.66 0.66 1.32 1 2 C1.33 1.67 1.66 1.34 2 1 C2.33 1.99 2.66 2.98 3 4 C3.33 3.67 3.66 3.34 4 3 C4.68707555 5.49064888 5 7.37886292 5 10 C8.465 9.505 8.465 9.505 12 9 C11.4375 10.9375 11.4375 10.9375 10 13 C6.375 13.75 6.375 13.75 3 14 C2.34 13.01 1.68 12.02 1 11 C-0.65 12.32 -2.3 13.64 -4 15 C-4.66 12.03 -5.32 9.06 -6 6 C-7.98 6.99 -9.96 7.98 -12 9 C-12 9.99 -12 10.98 -12 12 C-14.64 12 -17.28 12 -20 12 C-19.4225 11.7525 -18.845 11.505 -18.25 11.25 C-14.54418357 9.19121309 -12.33327097 6.49990645 -10 3 C-9.67 3.66 -9.34 4.32 -9 5 C-8.67 4.34 -8.34 3.68 -8 3 C-4.125 4.875 -4.125 4.875 -3 6 C-2.01 4.02 -1.02 2.04 0 0 Z " fill="#726D80" transform="translate(206,133)"/>
<path d="M0 0 C3.74267698 1.69448672 6.33426123 3.98156168 9.31640625 6.7578125 C11.05363149 8.2968542 11.05363149 8.2968542 14 8 C13.67 10.97 13.34 13.94 13 17 C13.99 17.33 14.98 17.66 16 18 C12.91190305 19.76462683 11.76687864 20 8 20 C8 18.02 8 16.04 8 14 C7.31292969 14.0721875 6.62585938 14.144375 5.91796875 14.21875 C4.56638672 14.35796875 4.56638672 14.35796875 3.1875 14.5 C2.29417969 14.5928125 1.40085938 14.685625 0.48046875 14.78125 C-2 15 -2 15 -5 15 C-5 13 -5 11 -5 9 C-4.4740625 9.7734375 -4.4740625 9.7734375 -3.9375 10.5625 C-1.91569826 12.38124201 -1.91569826 12.38124201 1.625 11.8125 C3.295625 11.4103125 3.295625 11.4103125 5 11 C5.33 10.34 5.66 9.68 6 9 C4.35 8.01 2.7 7.02 1 6 C1.99 5.67 2.98 5.34 4 5 C2.68 3.35 1.36 1.7 0 0 Z " fill="#5C5965" transform="translate(206,231)"/>
<path d="M0 0 C0.66 0 1.32 0 2 0 C2.99 2.64 3.98 5.28 5 8 C5.66 7.67 6.32 7.34 7 7 C6.979375 8.2375 6.95875 9.475 6.9375 10.75 C6.93233319 13.6640825 7.06984442 16.20953327 8 19 C5.54470101 18.04516151 3.15658246 17.08052812 0.8125 15.875 C-0.96474133 14.85508364 -0.96474133 14.85508364 -3 15 C-3.268125 16.0725 -3.53625 17.145 -3.8125 18.25 C-5.10981116 22.34677208 -6.24525676 24.70019019 -9.6875 27.25 C-13.16694118 28.37846741 -16.35151799 28.12161607 -20 28 C-20.33 27.34 -20.66 26.68 -21 26 C-18.69 26.33 -16.38 26.66 -14 27 C-13.67 26.34 -13.34 25.68 -13 25 C-12.38125 24.731875 -11.7625 24.46375 -11.125 24.1875 C-7.70202003 22.27465825 -6.40549073 19.36392337 -5.3125 15.6875 C-5.209375 15.130625 -5.10625 14.57375 -5 14 C-5.99 13.67 -6.98 13.34 -8 13 C-7.67 12.34 -7.34 11.68 -7 11 C-4.69 11.33 -2.38 11.66 0 12 C1.85776765 8.86501708 2.20140476 6.62528568 2 3 C1.34 2.67 0.68 2.34 0 2 C0 1.34 0 0.68 0 0 Z " fill="#655E74" transform="translate(198,139)"/>
<path d="M0 0 C0.99 0.66 1.98 1.32 3 2 C2 4 2 4 -0.9375 5.625 C-5.06819957 8.82839967 -5.15859466 10.95156794 -6 16 C-6.61875 15.195625 -7.2375 14.39125 -7.875 13.5625 C-9.74164041 10.96125481 -9.74164041 10.96125481 -12 10 C-12.33 10.99 -12.66 11.98 -13 13 C-14.61949011 10.42786866 -15.04408751 9.32330841 -14.625 6.25 C-14.41875 5.5075 -14.2125 4.765 -14 4 C-13.34 4 -12.68 4 -12 4 C-11.67 3.01 -11.34 2.02 -11 1 C-7.58978257 1.78697325 -4.31114834 2.87119943 -1 4 C-0.67 2.68 -0.34 1.36 0 0 Z " fill="#C5BCDD" transform="translate(210,126)"/>
<path d="M0 0 C0.33 1.32 0.66 2.64 1 4 C1.99 4 2.98 4 4 4 C5.98 8.29 7.96 12.58 10 17 C10.33 15.35 10.66 13.7 11 12 C11.33 12 11.66 12 12 12 C12.22197585 14.10277123 12.42713637 16.20732302 12.625 18.3125 C12.79902344 20.07013672 12.79902344 20.07013672 12.9765625 21.86328125 C13 25 13 25 11 28 C10.68546875 27.32453125 10.3709375 26.6490625 10.046875 25.953125 C6.49412852 18.20501645 6.49412852 18.20501645 0 13 C0.66 11.35 1.32 9.7 2 8 C-0.21928194 5.09197539 -1.92969143 3.04687238 -5 1 C-3 0 -3 0 0 0 Z " fill="#5B5C60" transform="translate(250,236)"/>
<path d="M0 0 C0.33 0 0.66 0 1 0 C1.33 2.97 1.66 5.94 2 9 C4.97 9.495 4.97 9.495 8 10 C7.360625 10.28875 6.72125 10.5775 6.0625 10.875 C3.84793921 11.82823451 3.84793921 11.82823451 3 14 C2.01 14.33 1.02 14.66 0 15 C-0.33 15.66 -0.66 16.32 -1 17 C-1.66 17 -2.32 17 -3 17 C-3.33 18.65 -3.66 20.3 -4 22 C-4.33 22 -4.66 22 -5 22 C-5 19.03 -5 16.06 -5 13 C-7.31 12.34 -9.62 11.68 -12 11 C-11.01 10.34 -10.02 9.68 -9 9 C-10.65 8.67 -12.3 8.34 -14 8 C-12.68 7.34 -11.36 6.68 -10 6 C-10.33 5.34 -10.66 4.68 -11 4 C-6.125 5.875 -6.125 5.875 -5 7 C-4.34 6.34 -3.68 5.68 -3 5 C-2.87625 5.639375 -2.7525 6.27875 -2.625 6.9375 C-2.41875 7.618125 -2.2125 8.29875 -2 9 C-1.34 9.33 -0.68 9.66 0 10 C0 6.7 0 3.4 0 0 Z " fill="#6A647A" transform="translate(199,113)"/>
<path d="M0 0 C2 3 2 3 1.625 5.6875 C1.315625 6.8321875 1.315625 6.8321875 1 8 C0.34 8 -0.32 8 -1 8 C-1.6496875 9.11375 -1.6496875 9.11375 -2.3125 10.25 C-4.16677714 13.27178496 -6.15621943 14.92480878 -9 17 C-9.66 16.67 -10.32 16.34 -11 16 C-11.66 17.32 -12.32 18.64 -13 20 C-12.34 20.33 -11.68 20.66 -11 21 C-12.32 21 -13.64 21 -15 21 C-14.01 18.03 -13.02 15.06 -12 12 C-12.66 12 -13.32 12 -14 12 C-14.33 10.35 -14.66 8.7 -15 7 C-14.34 8.32 -13.68 9.64 -13 11 C-12.34 11 -11.68 11 -11 11 C-10.67 10.01 -10.34 9.02 -10 8 C-7.9375 6.8125 -7.9375 6.8125 -6 6 C-6 6.99 -6 7.98 -6 9 C-3.03 4.545 -3.03 4.545 0 0 Z " fill="#C8CAD1" transform="translate(264,208)"/>
<path d="M0 0 C5.48358436 0.09072106 9.84402797 2.76604064 14.5 5.4375 C13.42046026 10.26428828 11.57460488 13.81592109 7.5859375 16.93359375 C1.8739537 20.49601474 -2.86302904 21.06101502 -9.5 20.4375 C-9.5 20.1075 -9.5 19.7775 -9.5 19.4375 C-8.69175781 19.25574219 -7.88351562 19.07398438 -7.05078125 18.88671875 C-5.98214844 18.63535156 -4.91351563 18.38398438 -3.8125 18.125 C-2.22888672 17.75955078 -2.22888672 17.75955078 -0.61328125 17.38671875 C3.2841135 16.19842901 6.38024831 14.93584968 8.86328125 11.61328125 C9.17652344 10.99839844 9.48976563 10.38351562 9.8125 9.75 C10.369375 8.656875 10.92625 7.56375 11.5 6.4375 C10.4171875 6.004375 10.4171875 6.004375 9.3125 5.5625 C7.51930532 4.84522213 5.74452674 4.0786502 4 3.25 C0.9836283 2.2696792 -0.5071797 2.43989323 -3.5 3.4375 C-5.76454073 4.90521271 -5.76454073 4.90521271 -7.5 6.4375 C-5.58538241 2.33474803 -4.76452302 0.59556538 0 0 Z " fill="#232831" transform="translate(355.5,284.5625)"/>
<path d="M0 0 C0.33 2.31 0.66 4.62 1 7 C-2.42157938 7.68431588 -5.64596973 8.0521203 -9.125 8 C-12.77578131 7.83149625 -12.77578131 7.83149625 -15.3125 8.625 C-15.869375 8.74875 -16.42625 8.8725 -17 9 C-17.99 8.34 -18.98 7.68 -20 7 C-20 6.34 -20 5.68 -20 5 C-16.04 4.34 -12.08 3.68 -8 3 C-7.67 2.01 -7.34 1.02 -7 0 C-4.05610218 -1.17755913 -3.10046087 -1.03348696 0 0 Z " fill="#867D9C" transform="translate(193,166)"/>
<path d="M0 0 C0.33 0.99 0.66 1.98 1 3 C3.475 3.495 3.475 3.495 6 4 C6 4.66 6 5.32 6 6 C4.35 6 2.7 6 1 6 C1 6.66 1 7.32 1 8 C-2.21451269 9.60725635 -5.43612536 9.05748185 -9 9 C-9 10.32 -9 11.64 -9 13 C-11.97 12.67 -14.94 12.34 -18 12 C-19.49821059 8.62902617 -20 6.79557881 -20 3 C-20.66 2.67 -21.32 2.34 -22 2 C-20.68 2.33 -19.36 2.66 -18 3 C-18 3.66 -18 4.32 -18 5 C-17.01 5 -16.02 5 -15 5 C-15 5.66 -15 6.32 -15 7 C-14.34 7.33 -13.68 7.66 -13 8 C-13.99 8.66 -14.98 9.32 -16 10 C-15.01 10.33 -14.02 10.66 -13 11 C-12.61199219 10.51917969 -12.22398437 10.03835937 -11.82421875 9.54296875 C-9.45911353 7.54250502 -7.87308547 7.51123932 -4.8125 7.3125 C-3.46091797 7.21388672 -3.46091797 7.21388672 -2.08203125 7.11328125 C-1.39496094 7.07589844 -0.70789063 7.03851563 0 7 C-0.33 6.01 -0.66 5.02 -1 4 C-1.66 3.67 -2.32 3.34 -3 3 C-2.01 2.01 -1.02 1.02 0 0 Z " fill="#3E4552" transform="translate(353,165)"/>
<path d="M0 0 C0.99 0 1.98 0 3 0 C3 1.98 3 3.96 3 6 C4.98 6 6.96 6 9 6 C9 4.02 9 2.04 9 0 C9.99 0 10.98 0 12 0 C12.33 4.29 12.66 8.58 13 13 C11.02 13 9.04 13 7 13 C7.66 12.67 8.32 12.34 9 12 C9 10.35 9 8.7 9 7 C7.02 7 5.04 7 3 7 C3.33 8.98 3.66 10.96 4 13 C2.35 13 0.7 13 -1 13 C-0.67 8.71 -0.34 4.42 0 0 Z " fill="#1B1B1D" transform="translate(274,351)"/>
<path d="M0 0 C1.875 0.3125 1.875 0.3125 4 1 C6 4 6 4 5.75 7.0625 C5 10 5 10 3 12 C0.04337034 11.77256695 -1.55033688 11.38764062 -3.8125 9.4375 C-4.204375 8.963125 -4.59625 8.48875 -5 8 C-4.67 7.67 -4.34 7.34 -4 7 C-5.32 6.34 -6.64 5.68 -8 5 C-6.8553125 4.87625 -6.8553125 4.87625 -5.6875 4.75 C-2.47626739 3.85384206 -1.70625501 2.78388975 0 0 Z " fill="#BCB1D6" transform="translate(195,140)"/>
<path d="M0 0 C0.99 0.33 1.98 0.66 3 1 C2.01 1.495 2.01 1.495 1 2 C1 2.66 1 3.32 1 4 C1.763125 4.28875 2.52625 4.5775 3.3125 4.875 C6 6 6 6 9 8 C9.99 8 10.98 8 12 8 C12 7.01 12 6.02 12 5 C12.99 5.33 13.98 5.66 15 6 C14.67 4.68 14.34 3.36 14 2 C14.66 2.33 15.32 2.66 16 3 C16 4.32 16 5.64 16 7 C16.99 7.33 17.98 7.66 19 8 C16.42686956 10.57313044 14.35541174 11.77409804 10.75 12.375 C6.7258921 11.82625801 3.5201345 9.95660081 0 8 C0 6.68 0 5.36 0 4 C-0.66 4 -1.32 4 -2 4 C-2 3.34 -2 2.68 -2 2 C-1.34 2 -0.68 2 0 2 C0 1.34 0 0.68 0 0 Z " fill="#4F4761" transform="translate(153,110)"/>
<path d="M0 0 C6.75 0.75 6.75 0.75 9 3 C5.8346014 4.5826993 2.35358491 4.65696549 -1.125 5.0625 C-2.25615234 5.19881836 -2.25615234 5.19881836 -3.41015625 5.33789062 C-5.27304188 5.56190852 -7.13647252 5.78138573 -9 6 C-9 6.33 -9 6.66 -9 7 C-10.65 7 -12.3 7 -14 7 C-13.42415568 9.38564077 -12.77772405 11.66682784 -12 14 C-12.99 15.485 -12.99 15.485 -14 17 C-14.268125 16.38125 -14.53625 15.7625 -14.8125 15.125 C-15.95556848 12.7004767 -15.95556848 12.7004767 -19 11 C-18.67 9.68 -18.34 8.36 -18 7 C-17.01 7 -16.02 7 -15 7 C-15 6.34 -15 5.68 -15 5 C-14.195625 4.87625 -13.39125 4.7525 -12.5625 4.625 C-11.716875 4.41875 -10.87125 4.2125 -10 4 C-9.67 3.34 -9.34 2.68 -9 2 C-5.04 2 -1.08 2 3 2 C2.01 1.34 1.02 0.68 0 0 Z " fill="#77797D" transform="translate(270,226)"/>
<path d="M0 0 C2.4375 0.8125 2.4375 0.8125 4.4375 2.8125 C4.10778521 6.10964793 3.8148161 7.4351839 1.4375 9.8125 C-1.0625 10.0625 -1.0625 10.0625 -3.5625 9.8125 C-5.5625 7.8125 -5.5625 7.8125 -5.875 5.375 C-5.5625 2.8125 -5.5625 2.8125 -4.375 0.9375 C-2.5625 -0.1875 -2.5625 -0.1875 0 0 Z " fill="#262B34" transform="translate(346.5625,372.1875)"/>
<path d="M0 0 C-2.06070351 2.45699265 -3.45102584 3.83932464 -6.5625 4.75 C-11.37890727 5.10028417 -16.17341842 5.07729401 -21 5 C-21 3 -21 3 -19 1 C-16.14866757 0.50449406 -13.37155971 0.11663071 -10.5 -0.1875 C-9.71496094 -0.28224609 -8.92992187 -0.37699219 -8.12109375 -0.47460938 C-2.26506696 -1.13253348 -2.26506696 -1.13253348 0 0 Z " fill="#DADFEA" transform="translate(279,230)"/>
<path d="M0 0 C1.485 0.99 1.485 0.99 3 2 C2.67 2.99 2.34 3.98 2 5 C3.98 4.67 5.96 4.34 8 4 C7.01 4.495 7.01 4.495 6 5 C6.99 6.485 6.99 6.485 8 8 C8.99 7.67 9.98 7.34 11 7 C12.32 7 13.64 7 15 7 C14.34 8.65 13.68 10.3 13 12 C9.4208791 12.21053652 6.54877937 12.17894979 3.125 11.0625 C-0.12735105 7.90580633 0.10090453 4.37558749 0 0 Z " fill="#B4C7EA" transform="translate(327,172)"/>
<path d="M0 0 C2.99675947 1.19870379 5.63532243 2.80422797 8 5 C8 6.32 8 7.64 8 9 C7.01 9 6.02 9 5 9 C5.66 10.98 6.32 12.96 7 15 C2.9918197 11.32583472 0.47408385 7.85653496 -2 3 C-2 2.34 -2 1.68 -2 1 C-1.34 0.67 -0.68 0.34 0 0 Z " fill="#C2B9DB" transform="translate(197,153)"/>
<path d="M0 0 C-2.83332467 3.04516202 -5.65500311 5.16868601 -9.25 7.25 C-10.58804688 8.03117188 -10.58804688 8.03117188 -11.953125 8.828125 C-12.62859375 9.21484375 -13.3040625 9.6015625 -14 10 C-14 9.34 -14 8.68 -14 8 C-14.66 7.67 -15.32 7.34 -16 7 C-14.97386916 4.02422056 -14.03368909 3.02245939 -11.375 1.25 C-7.25131983 -0.27728895 -4.36676486 -0.22586715 0 0 Z " fill="#CCC9D7" transform="translate(242,235)"/>
<path d="M0 0 C0.99 0.66 1.98 1.32 3 2 C2.42334609 6.7871428 0.35917004 10.25128824 -2.0625 14.3125 C-2.62807617 15.28026367 -2.62807617 15.28026367 -3.20507812 16.26757812 C-4.13037493 17.84878152 -5.06432681 19.4249146 -6 21 C-6.99 21 -7.98 21 -9 21 C-7.58572546 17.09120102 -5.72384225 13.84031206 -3.4375 10.375 C-1.56250053 7.52936671 -0.0790587 5.23717611 1 2 C0.0925 2.61875 -0.815 3.2375 -1.75 3.875 C-4.14948817 5.44389611 -6.40961612 6.80443821 -9 8 C-3.85714286 1.42857143 -3.85714286 1.42857143 0 0 Z " fill="#1F232A" transform="translate(346,196)"/>
<path d="M0 0 C0.66 0.33 1.32 0.66 2 1 C2 2.32 2 3.64 2 5 C2.99 5 3.98 5 5 5 C5 6.98 5 8.96 5 11 C4.34 10.01 3.68 9.02 3 8 C2.34 9.65 1.68 11.3 1 13 C1.66 13 2.32 13 3 13 C3 13.66 3 14.32 3 15 C1.68 15 0.36 15 -1 15 C-3 13 -3 13 -3.046875 10.46875 C-2.94890625 9.4890625 -2.8509375 8.509375 -2.75 7.5 C-2.66234375 6.5203125 -2.5746875 5.540625 -2.484375 4.53125 C-2 2 -2 2 0 0 Z " fill="#9690A7" transform="translate(207,143)"/>
<path d="M0 0 C1.8125 0.9375 1.8125 0.9375 3.125 2.75 C3.95512762 5.39131516 3.91985633 6.40639981 2.8125 8.9375 C1.52146357 10.3118291 0.1868291 11.64646357 -1.1875 12.9375 C-2.1775 14.4225 -2.1775 14.4225 -3.1875 15.9375 C-3.1875 14.6175 -3.1875 13.2975 -3.1875 11.9375 C-3.8475 11.6075 -4.5075 11.2775 -5.1875 10.9375 C-3.8675 9.9475 -2.5475 8.9575 -1.1875 7.9375 C-2.54747859 5.21754282 -4.52812482 4.26718759 -7.1875 2.9375 C-2.84062843 -0.08116081 -2.84062843 -0.08116081 0 0 Z " fill="#7F7498" transform="translate(175.1875,147.0625)"/>
<path d="M0 0 C3 1 3 1 5 4 C5.99 3.67 6.98 3.34 8 3 C9.3921875 3.2784375 9.3921875 3.2784375 10.8125 3.5625 C14.4755813 4.06527587 16.6107709 3.37183082 20 2 C17.3401439 5.44216672 14.09711714 5.99504674 10 7 C10 10.63 10 14.26 10 18 C9.67 18 9.34 18 9 18 C9 14.37 9 10.74 9 7 C8.0925 6.896875 7.185 6.79375 6.25 6.6875 C2.98038425 5.99585051 1.46282263 5.17865079 -1 3 C-1.33 3.66 -1.66 4.32 -2 5 C-2 2 -2 2 0 0 Z " fill="#4E4D51" transform="translate(227,250)"/>
<path d="M0 0 C0.969375 0.86625 1.93875 1.7325 2.9375 2.625 C11.27987084 9.66855861 18.11561731 13.08219532 29 15 C29 15.33 29 15.66 29 16 C20.13120699 16.57218019 13.00250379 14.75655051 6.0625 9 C3.76010928 6.84965395 1.64426724 4.70820487 0 2 C0 1.34 0 0.68 0 0 Z " fill="#2D323C" transform="translate(322,292)"/>
<path d="M0 0 C0.33 3.96 0.66 7.92 1 12 C0.01 12.33 -0.98 12.66 -2 13 C-2 12.34 -2 11.68 -2 11 C-3.98 11.99 -3.98 11.99 -6 13 C-6 12.34 -6 11.68 -6 11 C-6.66 10.67 -7.32 10.34 -8 10 C-6.02 8.35 -4.04 6.7 -2 5 C-4.31 4.01 -6.62 3.02 -9 2 C-9 1.67 -9 1.34 -9 1 C-2.25 0 -2.25 0 0 0 Z " fill="#7D778D" transform="translate(204,270)"/>
<path d="M0 0 C1.32 0 2.64 0 4 0 C4.66 1.98 5.32 3.96 6 6 C8.10232344 3.1315587 8.10232344 3.1315587 9 0 C9.66 0 10.32 0 11 0 C10.52140759 1.60433809 10.04210442 3.20846416 9.5625 4.8125 C9.29566406 5.70582031 9.02882812 6.59914063 8.75390625 7.51953125 C8.19612127 9.35473055 7.60655425 11.18033726 7 13 C6.01 12.67 5.02 12.34 4 12 C2.8125 8.9375 2.8125 8.9375 2 6 C1.01 6.495 1.01 6.495 0 7 C0 4.69 0 2.38 0 0 Z " fill="#19191B" transform="translate(217,351)"/>
<path d="M0 0 C1.32 0.33 2.64 0.66 4 1 C4 3.97 4 6.94 4 10 C5.65 10.33 7.3 10.66 9 11 C9.33 7.37 9.66 3.74 10 0 C10.99 0.33 11.98 0.66 13 1 C12.88541307 2.43836751 12.75790884 3.87570966 12.625 5.3125 C12.55539062 6.11300781 12.48578125 6.91351563 12.4140625 7.73828125 C12 10 12 10 10 13 C6.5 13.3125 6.5 13.3125 3 13 C0.41073669 10.41073669 0.62601957 8.97294721 0.375 5.375 C0.30023438 4.37210937 0.22546875 3.36921875 0.1484375 2.3359375 C0.09945313 1.56507813 0.05046875 0.79421875 0 0 Z " fill="#15171A" transform="translate(308,351)"/>
<path d="M0 0 C4.62 0 9.24 0 14 0 C13.67 0.99 13.34 1.98 13 3 C10.525 2.01 10.525 2.01 8 1 C8 4.63 8 8.26 8 12 C8.66 12.33 9.32 12.66 10 13 C7.69 13 5.38 13 3 13 C3.66 12.67 4.32 12.34 5 12 C5 8.37 5 4.74 5 1 C3.35 1.33 1.7 1.66 0 2 C0 1.34 0 0.68 0 0 Z " fill="#262627" transform="translate(251,351)"/>
<path d="M0 0 C0 3.95875396 -1.21313946 6.49009536 -3 10 C-5.1875 11.4375 -5.1875 11.4375 -7 12 C-6.67 10.35 -6.34 8.7 -6 7 C-5.34 7.33 -4.68 7.66 -4 8 C-3.67 6.02 -3.34 4.04 -3 2 C-4.32 2 -5.64 2 -7 2 C-7 4.64 -7 7.28 -7 10 C-7.66 10 -8.32 10 -9 10 C-9.33 10.66 -9.66 11.32 -10 12 C-10.07427838 8.65747276 -10.06546953 6.1964086 -9 3 C-9.66 2.34 -10.32 1.68 -11 1 C-7.32589215 -0.17571451 -3.83070817 -0.07366746 0 0 Z " fill="#596272" transform="translate(337,154)"/>
<path d="M0 0 C0.763125 0.0825 1.52625 0.165 2.3125 0.25 C1.3125 3.25 1.3125 3.25 -0.6875 4.25 C-0.0275 4.848125 0.6325 5.44625 1.3125 6.0625 C3.3125 8.25 3.3125 8.25 3.3125 11.25 C2.6525 11.25 1.9925 11.25 1.3125 11.25 C0.9825 12.24 0.6525 13.23 0.3125 14.25 C-1.0075 13.59 -2.3275 12.93 -3.6875 12.25 C-3.0275 10.6 -2.3675 8.95 -1.6875 7.25 C-2.6775 7.25 -3.6675 7.25 -4.6875 7.25 C-5.0175 6.26 -5.3475 5.27 -5.6875 4.25 C-4.12435347 1.21054842 -3.46963346 0.3227566 0 0 Z " fill="#6C788F" transform="translate(339.6875,162.75)"/>
<path d="M0 0 C0.99 0.66 1.98 1.32 3 2 C2 4 1 6 0 8 C0.99 8.33 1.98 8.66 3 9 C1.68 10.32 0.36 11.64 -1 13 C-1 12.01 -1 11.02 -1 10 C-1.66 10 -2.32 10 -3 10 C-3.33 11.32 -3.66 12.64 -4 14 C-4.66 13.01 -5.32 12.02 -6 11 C-5.34 11 -4.68 11 -4 11 C-4.268125 10.113125 -4.53625 9.22625 -4.8125 8.3125 C-5 5 -5 5 -2.5625 2.125 C-1.716875 1.42375 -0.87125 0.7225 0 0 Z " fill="#55535B" transform="translate(226,234)"/>
<path d="M0 0 C0.4125 0.495 0.825 0.99 1.25 1.5 C3.12202338 3.43386092 3.12202338 3.43386092 7 3 C8.32286246 7.96073422 8.08893197 12.91111512 8 18 C5.93452078 14.90178117 4.43756389 11.81550648 2.875 8.4375 C2.33617187 7.28121094 1.79734375 6.12492188 1.2421875 4.93359375 C0 2 0 2 0 0 Z " fill="#B4B7BC" transform="translate(253,238)"/>
<path d="M0 0 C2.76223278 2.76223278 2.57856291 5.20706617 3 9 C2.195625 8.9175 1.39125 8.835 0.5625 8.75 C-4.18189247 9.08293982 -7.78455517 10.90164524 -12 13 C-11.74609375 11.140625 -11.74609375 11.140625 -11 9 C-9.22265625 7.734375 -9.22265625 7.734375 -7.0625 6.75 C-5.99708984 6.24726563 -5.99708984 6.24726563 -4.91015625 5.734375 C-3 5 -3 5 -1 5 C-0.67 3.35 -0.34 1.7 0 0 Z " fill="#18181A" transform="translate(279,212)"/>
<path d="M0 0 C0 1.98 0 3.96 0 6 C-3.64160808 7.21386936 -4.33165469 6.6674695 -7.6875 5.0625 C-8.49574219 4.68222656 -9.30398438 4.30195313 -10.13671875 3.91015625 C-10.75160156 3.60980469 -11.36648438 3.30945313 -12 3 C-12 2.34 -12 1.68 -12 1 C-7.93631321 0.22596442 -4.13574827 -0.0984702 0 0 Z " fill="#6B7B97" transform="translate(360,177)"/>
<path d="M0 0 C1.10868317 3.32604951 1.54177532 6.53058454 2 10 C2.66 10 3.32 10 4 10 C4.33 9.01 4.66 8.02 5 7 C5.96891192 12.37305699 5.96891192 12.37305699 6 15 C4.5625 17 4.5625 17 3 18 C2 14.125 2 14.125 2 13 C1.34 13 0.68 13 0 13 C0 12.34 0 11.68 0 11 C-0.66 11 -1.32 11 -2 11 C-2.96891192 5.62694301 -2.96891192 5.62694301 -3 3 C-1.5625 1 -1.5625 1 0 0 Z " fill="#736A87" transform="translate(180,128)"/>
<path d="M0 0 C1.5625 1.4375 1.5625 1.4375 3 4 C2.93621446 6.31754142 2.6252711 8.49844781 2.2265625 10.78125 C1.98683607 13.12891569 2.29856674 14.76354614 3 17 C-0.465 15.02 -0.465 15.02 -4 13 C-4 12.01 -4 11.02 -4 10 C-2.68 9.67 -1.36 9.34 0 9 C-0.99 8.34 -1.98 7.68 -3 7 C-2.01 4.69 -1.02 2.38 0 0 Z " fill="#C4BDD9" transform="translate(210,149)"/>
<path d="M0 0 C0 3 0 3 -1.9765625 5.33984375 C-11.74702236 14.92296441 -11.74702236 14.92296441 -16 17 C-18.875 16.75 -18.875 16.75 -21 16 C-21.33 14.02 -21.66 12.04 -22 10 C-21.67 10.99 -21.34 11.98 -21 13 C-20.34 13 -19.68 13 -19 13 C-19 13.66 -19 14.32 -19 15 C-11.19815292 11.41944216 -5.80675379 6.24316952 0 0 Z " fill="#202225" transform="translate(306,236)"/>
<path d="M0 0 C2.19470368 3.95046662 3 7.48763697 3 12 C2.01 12.66 1.02 13.32 0 14 C-0.66 13.01 -1.32 12.02 -2 11 C-2.99 11.33 -3.98 11.66 -5 12 C-4.34 9.03 -3.68 6.06 -3 3 C-2.67 4.32 -2.34 5.64 -2 7 C-1.34 4.69 -0.68 2.38 0 0 Z " fill="#928F9B" transform="translate(229,224)"/>
<path d="M0 0 C-4.105466 3.97185616 -7.02968261 6.70876501 -13 7 C-13.66 6.01 -14.32 5.02 -15 4 C-12 2 -12 2 -10 2 C-8.865625 1.484375 -7.73125 0.96875 -6.5625 0.4375 C-3 -1 -3 -1 0 0 Z " fill="#C2B7DD" transform="translate(203,275)"/>
<path d="M0 0 C0.66 0 1.32 0 2 0 C1.69430564 4.29218017 1.37929775 8.58362619 1.0625 12.875 C0.97548828 14.09832031 0.88847656 15.32164062 0.79882812 16.58203125 C0.71181641 17.74863281 0.62480469 18.91523438 0.53515625 20.1171875 C0.456604 21.19597168 0.37805176 22.27475586 0.29711914 23.38623047 C0 26 0 26 -1 28 C-2.65 27.67 -4.3 27.34 -6 27 C-6 25.35 -6 23.7 -6 22 C-5.01 22.99 -4.02 23.98 -3 25 C-1.76079748 22.52159495 -1.69268965 20.53796776 -1.46484375 17.7734375 C-1.33432617 16.2265625 -1.33432617 16.2265625 -1.20117188 14.6484375 C-1.11416016 13.56820312 -1.02714844 12.48796875 -0.9375 11.375 C-0.80118164 9.74304688 -0.80118164 9.74304688 -0.66210938 8.078125 C-0.43774049 5.38569843 -0.21719886 2.69301291 0 0 Z " fill="#34373C" transform="translate(291,143)"/>
<path d="M0 0 C1.670625 0.061875 1.670625 0.061875 3.375 0.125 C3.375 1.115 3.375 2.105 3.375 3.125 C2.715 3.125 2.055 3.125 1.375 3.125 C1.375 2.465 1.375 1.805 1.375 1.125 C0.055 1.125 -1.265 1.125 -2.625 1.125 C-1.92990919 4.31825431 -1.92990919 4.31825431 0.875 5.5625 C3.375 7.125 3.375 7.125 4.1875 9.3125 C4.249375 9.910625 4.31125 10.50875 4.375 11.125 C3.385 11.455 2.395 11.785 1.375 12.125 C1.375 10.805 1.375 9.485 1.375 8.125 C0.405625 7.8775 -0.56375 7.63 -1.5625 7.375 C-4.625 6.125 -4.625 6.125 -5.625 4.125 C-5.625 0.12403124 -3.58125362 0.1234915 0 0 Z " fill="#21242B" transform="translate(335.625,350.875)"/>
<path d="M0 0 C1.1875 1.625 1.1875 1.625 2 4 C0.505375 7.93322367 -0.46597843 9.64398562 -4 12 C-4 12.66 -4 13.32 -4 14 C-4.66 14 -5.32 14 -6 14 C-6 14.66 -6 15.32 -6 16 C-6.66 16 -7.32 16 -8 16 C-8.3125 13.75 -8.3125 13.75 -8 11 C-6.34211215 9.65576661 -4.67423683 8.32381517 -3 7 C-1.73308352 4.71361167 -0.90160681 2.46755548 0 0 Z " fill="#AEC1E3" transform="translate(337,156)"/>
<path d="M0 0 C1.47118907 3.82509158 0.45442741 6.28312995 -1 10 C-1.33 10.66 -1.66 11.32 -2 12 C-2.66 12 -3.32 12 -4 12 C-4.33 11.67 -4.66 11.34 -5 11 C-5.66 12.32 -6.32 13.64 -7 15 C-8.27351308 12.45297384 -7.80191925 11.5717055 -7.0625 8.875 C-6.86785156 8.15054688 -6.67320312 7.42609375 -6.47265625 6.6796875 C-6.31667969 6.12539062 -6.16070312 5.57109375 -6 5 C-5.67 5.66 -5.34 6.32 -5 7 C-4.01 7 -3.02 7 -2 7 C-2.04125 6.21625 -2.0825 5.4325 -2.125 4.625 C-2 2 -2 2 0 0 Z " fill="#4F4F51" transform="translate(255,207)"/>
<path d="M0 0 C0.66 0 1.32 0 2 0 C2.22084624 6.09781001 2.01167675 11.21642935 0 17 C-0.66 16.34 -1.32 15.68 -2 15 C-1.625 11.375 -1.625 11.375 -1 8 C-1.99 8.33 -2.98 8.66 -4 9 C-2.80100302 5.9168649 -1.52299523 2.93720508 0 0 Z " fill="#B4AEC4" transform="translate(216,151)"/>
<path d="M0 0 C0.66 0.33 1.32 0.66 2 1 C2 1.66 2 2.32 2 3 C3.093125 3.103125 4.18625 3.20625 5.3125 3.3125 C9.1734414 4.03233653 9.5030346 4.38953617 12 7 C14.62570704 7.25069913 14.62570704 7.25069913 17 7 C15.68 8.32 14.36 9.64 13 11 C12.67 10.34 12.34 9.68 12 9 C10.06669397 7.90833725 10.06669397 7.90833725 8 7 C7.34 6.67 6.68 6.34 6 6 C5.01 7.485 5.01 7.485 4 9 C4 7.68 4 6.36 4 5 C3.01 5 2.02 5 1 5 C1 4.34 1 3.68 1 3 C0.01 2.67 -0.98 2.34 -2 2 C-1.34 2 -0.68 2 0 2 C0 1.34 0 0.68 0 0 Z " fill="#5F6C83" transform="translate(342,179)"/>
<path d="M0 0 C8.20481928 2.73493976 8.20481928 2.73493976 10.375 6.1875 C10.58125 6.785625 10.7875 7.38375 11 8 C10.01 8.495 10.01 8.495 9 9 C8.34 8.34 7.68 7.68 7 7 C6.01 7 5.02 7 4 7 C0.8125 5.125 0.8125 5.125 -2 3 C-2 2.34 -2 1.68 -2 1 C-1.34 0.67 -0.68 0.34 0 0 Z " fill="#A391CB" transform="translate(156,111)"/>
<path d="M0 0 C0 2.31 0 4.62 0 7 C-1.8125 7.625 -1.8125 7.625 -4 8 C-4.99 7.34 -5.98 6.68 -7 6 C-7.66 5.67 -8.32 5.34 -9 5 C-8.01 4.34 -7.02 3.68 -6 3 C-6.33 2.34 -6.66 1.68 -7 1 C-4.53721199 -0.231394 -2.7204945 -0.07159196 0 0 Z " fill="#938EA2" transform="translate(214,245)"/>
<path d="M0 0 C2.31 0 4.62 0 7 0 C7.33 0.66 7.66 1.32 8 2 C7.0625 4.125 7.0625 4.125 6 6 C3.625 6.125 3.625 6.125 1 6 C0.34 5.34 -0.32 4.68 -1 4 C-0.625 1.875 -0.625 1.875 0 0 Z " fill="#938DA4" transform="translate(203,124)"/>
<path d="M0 0 C0.66 0 1.32 0 2 0 C2.99 2.64 3.98 5.28 5 8 C5.66 7.67 6.32 7.34 7 7 C6.979375 8.2375 6.95875 9.475 6.9375 10.75 C6.93233319 13.6640825 7.06984442 16.20953327 8 19 C7.01 18.67 6.02 18.34 5 18 C4.67 15.69 4.34 13.38 4 11 C3.34 11 2.68 11 2 11 C2 8.36 2 5.72 2 3 C1.34 2.67 0.68 2.34 0 2 C0 1.34 0 0.68 0 0 Z " fill="#474450" transform="translate(198,139)"/>
<path d="M0 0 C0.99 0.33 1.98 0.66 3 1 C3.33 3.64 3.66 6.28 4 9 C2.35 9.66 0.7 10.32 -1 11 C-1.125 3.375 -1.125 3.375 0 0 Z " fill="#C7CDD9" transform="translate(273,132)"/>
<path d="M0 0 C0.33 1.32 0.66 2.64 1 4 C-5.7526255 8.82740887 -10.65922419 10.9583019 -19 10 C-19 9.67 -19 9.34 -19 9 C-18.19175781 8.81824219 -17.38351562 8.63648438 -16.55078125 8.44921875 C-15.48214844 8.19785156 -14.41351563 7.94648438 -13.3125 7.6875 C-12.25675781 7.44386719 -11.20101563 7.20023437 -10.11328125 6.94921875 C-5.44700882 5.52650332 -2.72341711 4.08512567 0 0 Z " fill="#2C323E" transform="translate(365,295)"/>
<path d="M0 0 C0.66 0.33 1.32 0.66 2 1 C1.67 1.66 1.34 2.32 1 3 C3.475 3.99 3.475 3.99 6 5 C6 5.33 6 5.66 6 6 C1.05 6 -3.9 6 -9 6 C-7.73295613 3.46591226 -6.56876843 3.06790028 -4.0625 1.8125 C-3.35222656 1.44769531 -2.64195312 1.08289063 -1.91015625 0.70703125 C-1.27980469 0.47371094 -0.64945312 0.24039063 0 0 Z " fill="#C2C7D0" transform="translate(270,223)"/>
<path d="M0 0 C0.99 0.66 1.98 1.32 3 2 C3.1875 4.625 3.1875 4.625 3 7 C1.68 7 0.36 7 -1 7 C-1.33 7.99 -1.66 8.98 -2 10 C-2.33 9.34 -2.66 8.68 -3 8 C-5.35599235 7.53248212 -5.35599235 7.53248212 -8.0625 7.375 C-8.98160156 7.30023438 -9.90070313 7.22546875 -10.84765625 7.1484375 C-11.55792969 7.09945312 -12.26820313 7.05046875 -13 7 C-13 6.67 -13 6.34 -13 6 C-12.39671875 6.01160156 -11.7934375 6.02320313 -11.171875 6.03515625 C-10.37265625 6.04417969 -9.5734375 6.05320313 -8.75 6.0625 C-7.96109375 6.07410156 -7.1721875 6.08570313 -6.359375 6.09765625 C-4.09308998 6.00385306 -2.1711105 5.63241063 0 5 C-0.33 4.01 -0.66 3.02 -1 2 C-0.67 1.34 -0.34 0.68 0 0 Z " fill="#544F61" transform="translate(193,167)"/>
<path d="M0 0 C0.33 0 0.66 0 1 0 C1.25 6.625 1.25 6.625 -1 10 C-2.32 8.35 -3.64 6.7 -5 5 C-5.66 6.65 -6.32 8.3 -7 10 C-7.33 10 -7.66 10 -8 10 C-8 7.03 -8 4.06 -8 1 C-4 3 -4 3 -2 6 C-1.34 4.02 -0.68 2.04 0 0 Z " fill="#35343A" transform="translate(225,372)"/>
<path d="M0 0 C1.32 0 2.64 0 4 0 C4.66 2.31 5.32 4.62 6 7 C6.66 7 7.32 7 8 7 C7.67 8.98 7.34 10.96 7 13 C6.01 12.67 5.02 12.34 4 12 C2.83203125 9.27734375 2.83203125 9.27734375 1.8125 5.9375 C1.46832031 4.83277344 1.12414062 3.72804688 0.76953125 2.58984375 C0.51558594 1.73519531 0.26164063 0.88054687 0 0 Z " fill="#111113" transform="translate(209,351)"/>
<path d="M0 0 C0.33 0.66 0.66 1.32 1 2 C0.06421005 4.35981813 -0.93347808 6.69631264 -2 9 C-1.01 9.33 -0.02 9.66 1 10 C-1.31 11.32 -3.62 12.64 -6 14 C-6.66 13.01 -7.32 12.02 -8 11 C-7.01 10.67 -6.02 10.34 -5 10 C-4.62243192 8.67851173 -4.2981424 7.34164079 -4 6 C-1.47368421 1.47368421 -1.47368421 1.47368421 0 0 Z " fill="#5A5A5C" transform="translate(251,220)"/>
<path d="M0 0 C0.33 0.99 0.66 1.98 1 3 C2.65 3.33 4.3 3.66 6 4 C6 4.66 6 5.32 6 6 C4.35 6 2.7 6 1 6 C1 6.66 1 7.32 1 8 C-1.95664519 9.4783226 -4.74229737 9.06032783 -8 9 C-6 7 -6 7 -2.875 6.875 C-1.92625 6.91625 -0.9775 6.9575 0 7 C-0.33 6.01 -0.66 5.02 -1 4 C-1.66 3.67 -2.32 3.34 -3 3 C-2.01 2.01 -1.02 1.02 0 0 Z " fill="#4F5B6F" transform="translate(353,165)"/>
<path d="M0 0 C1.67542976 0.28604898 3.34385343 0.61781233 5 1 C4.67 2.65 4.34 4.3 4 6 C2.125 6.625 2.125 6.625 0 7 C-0.66 6.34 -1.32 5.68 -2 5 C-1.46428571 1.46428571 -1.46428571 1.46428571 0 0 Z " fill="#A7BDE3" transform="translate(344,374)"/>
<path d="M0 0 C2.91271644 1.34680915 5.29328277 2.87448745 7.75 4.9375 C8.67039063 5.69353516 8.67039063 5.69353516 9.609375 6.46484375 C11 8 11 8 11 11 C10.01 11.33 9.02 11.66 8 12 C7.01 11.34 6.02 10.68 5 10 C5.33 9.67 5.66 9.34 6 9 C4.35 8.01 2.7 7.02 1 6 C1.99 5.67 2.98 5.34 4 5 C2.68 3.35 1.36 1.7 0 0 Z " fill="#777383" transform="translate(206,231)"/>
<path d="M0 0 C0.99 0.33 1.98 0.66 3 1 C2.01 1.495 2.01 1.495 1 2 C1 2.66 1 3.32 1 4 C3.475 4.99 3.475 4.99 6 6 C6 6.99 6 7.98 6 9 C5.01 9.33 4.02 9.66 3 10 C2.01 9.34 1.02 8.68 0 8 C0 6.68 0 5.36 0 4 C-0.66 4 -1.32 4 -2 4 C-2 3.34 -2 2.68 -2 2 C-1.34 2 -0.68 2 0 2 C0 1.34 0 0.68 0 0 Z " fill="#5A4F72" transform="translate(153,110)"/>
<path d="M0 0 C1.98 0 3.96 0 6 0 C6 0.66 6 1.32 6 2 C4.35 2 2.7 2 1 2 C1 2.66 1 3.32 1 4 C2.32 4 3.64 4 5 4 C5 4.66 5 5.32 5 6 C3.68 6 2.36 6 1 6 C1 6.99 1 7.98 1 9 C2.32 9.33 3.64 9.66 5 10 C3.02 10 1.04 10 -1 10 C-0.67 6.7 -0.34 3.4 0 0 Z " fill="#332F3D" transform="translate(178,372)"/>
<path d="M0 0 C0.66 0 1.32 0 2 0 C2 0.66 2 1.32 2 2 C3.98 2.66 5.96 3.32 8 4 C7.67 5.32 7.34 6.64 7 8 C3.37 8 -0.26 8 -4 8 C-3.67 7.34 -3.34 6.68 -3 6 C-0.9375 5.375 -0.9375 5.375 1 5 C0.67 3.35 0.34 1.7 0 0 Z " fill="#3B3646" transform="translate(176,137)"/>
<path d="M0 0 C2.29633824 3.44450737 2.54016485 5.93812283 3 10 C1.02 9.34 -0.96 8.68 -3 8 C-3 8.66 -3 9.32 -3 10 C-3.66 9.67 -4.32 9.34 -5 9 C-3.35 6.03 -1.7 3.06 0 0 Z " fill="#342C43" transform="translate(147,372)"/>
<path d="M0 0 C1.67542976 0.28604898 3.34385343 0.61781233 5 1 C4.67 2.65 4.34 4.3 4 6 C2.68 6 1.36 6 0 6 C-0.33 7.32 -0.66 8.64 -1 10 C-1.02689216 8.52093108 -1.04634621 7.04172517 -1.0625 5.5625 C-1.07410156 4.73878906 -1.08570313 3.91507812 -1.09765625 3.06640625 C-1 1 -1 1 0 0 Z " fill="#505359" transform="translate(280,372)"/>
<path d="M0 0 C0.9765625 6.0546875 0.9765625 6.0546875 1 8 C0.34 8.66 -0.32 9.32 -1 10 C-1.33 8.68 -1.66 7.36 -2 6 C-2.99 6.33 -3.98 6.66 -5 7 C-5.625 5.125 -5.625 5.125 -6 3 C-4.1132732 1.1132732 -2.83087714 0 0 0 Z " fill="#8A8796" transform="translate(222,160)"/>
<path d="M0 0 C2.31 0 4.62 0 7 0 C7.66 1.65 8.32 3.3 9 5 C8.360625 5.103125 7.72125 5.20625 7.0625 5.3125 C6.381875 5.539375 5.70125 5.76625 5 6 C4.67 6.99 4.34 7.98 4 9 C3 7 3 7 3 3 C2.01 2.67 1.02 2.34 0 2 C0 1.34 0 0.68 0 0 Z " fill="#656171" transform="translate(199,107)"/>
<path d="M0 0 C1.98 0 3.96 0 6 0 C5.875 2.3125 5.875 2.3125 5 5 C1.9375 6.8125 1.9375 6.8125 -1 8 C-0.67 5.36 -0.34 2.72 0 0 Z " fill="#595366" transform="translate(188,177)"/>
<path d="M0 0 C8.19256018 -0.4726477 8.19256018 -0.4726477 11.5625 1.5 C12.036875 1.995 12.51125 2.49 13 3 C10 5 10 5 7.51953125 4.7578125 C6.62621094 4.54898437 5.73289062 4.34015625 4.8125 4.125 C3.91144531 3.92132813 3.01039063 3.71765625 2.08203125 3.5078125 C1.39496094 3.34023438 0.70789063 3.17265625 0 3 C0 2.01 0 1.02 0 0 Z " fill="#8FA2C5" transform="translate(342,303)"/>
<path d="M0 0 C0.99 0.33 1.98 0.66 3 1 C2.34 1 1.68 1 1 1 C1 1.99 1 2.98 1 4 C1.5775 4.2475 2.155 4.495 2.75 4.75 C5.3002997 6.16683317 7.01785701 7.87627537 9 10 C8.01 10.495 8.01 10.495 7 11 C6.67 10.34 6.34 9.68 6 9 C5.01 8.67 4.02 8.34 3 8 C3 8.66 3 9.32 3 10 C2.01 10.33 1.02 10.66 0 11 C0.185625 10.195625 0.37125 9.39125 0.5625 8.5625 C0.706875 7.716875 0.85125 6.87125 1 6 C0.67 5.67 0.34 5.34 0 5 C-0.04063832 3.33382885 -0.042721 1.66611905 0 0 Z " fill="#615D6B" transform="translate(205,158)"/>
<path d="M0 0 C0.33 0 0.66 0 1 0 C1.33 2.97 1.66 5.94 2 9 C4.97 9.495 4.97 9.495 8 10 C7.360625 10.28875 6.72125 10.5775 6.0625 10.875 C3.84793921 11.82823451 3.84793921 11.82823451 3 14 C1.68 14 0.36 14 -1 14 C-0.67 9.38 -0.34 4.76 0 0 Z " fill="#423F4A" transform="translate(199,113)"/>
<path d="M0 0 C0.94875 0.04125 1.8975 0.0825 2.875 0.125 C2.875 0.455 2.875 0.785 2.875 1.125 C0.895 1.785 -1.085 2.445 -3.125 3.125 C-2.85823796 5.10991642 -2.85823796 5.10991642 -2.125 7.125 C-1.135 7.455 -0.145 7.785 0.875 8.125 C0.545 6.805 0.215 5.485 -0.125 4.125 C0.865 4.125 1.855 4.125 2.875 4.125 C2.545 5.775 2.215 7.425 1.875 9.125 C-0.5 9.25 -0.5 9.25 -3.125 9.125 C-5.125 7.125 -5.125 7.125 -5.375 4.625 C-4.98192433 0.69424327 -3.8631953 0.15452781 0 0 Z " fill="#2C2D2E" transform="translate(261.125,372.875)"/>
<path d="M0 0 C2.76223278 2.76223278 2.57856291 5.20706617 3 9 C2.67 8.34 2.34 7.68 2 7 C0.35 7 -1.3 7 -3 7 C-3 7.66 -3 8.32 -3 9 C-3.66 8.67 -4.32 8.34 -5 8 C-3.35 5.36 -1.7 2.72 0 0 Z " fill="#3A3E46" transform="translate(307,373)"/>
<path d="M0 0 C1.98 0 3.96 0 6 0 C6 0.66 6 1.32 6 2 C5.401875 2.5775 4.80375 3.155 4.1875 3.75 C1.72207845 6.28586216 0.45569573 8.7974694 -1 12 C-1.66 11.34 -2.32 10.68 -3 10 C-2.505 9.278125 -2.01 8.55625 -1.5 7.8125 C0.07919285 4.85151341 0.28178312 3.28746971 0 0 Z " fill="#1F2329" transform="translate(336,314)"/>
<path d="M0 0 C0.33 1.32 0.66 2.64 1 4 C1.99 4 2.98 4 4 4 C4.66 5.98 5.32 7.96 6 10 C5.01 10.495 5.01 10.495 4 11 C3.60167969 10.44570312 3.20335937 9.89140625 2.79296875 9.3203125 C2.26316406 8.59585938 1.73335937 7.87140625 1.1875 7.125 C0.66542969 6.40570313 0.14335937 5.68640625 -0.39453125 4.9453125 C-2.03272777 2.76971345 -2.03272777 2.76971345 -5 1 C-3 0 -3 0 0 0 Z " fill="#535355" transform="translate(250,236)"/>
<path d="M0 0 C2.475 0.495 2.475 0.495 5 1 C4.67 2.98 4.34 4.96 4 7 C4.99 7.66 5.98 8.32 7 9 C6.67 9.99 6.34 10.98 6 12 C1.30021142 9.10782241 1.30021142 9.10782241 0.4453125 5.953125 C0.21402785 3.97669255 0.09937182 1.98743631 0 0 Z " fill="#868096" transform="translate(202,162)"/>
<path d="M0 0 C1.32 0.33 2.64 0.66 4 1 C3.67 3.31 3.34 5.62 3 8 C0.69 7.34 -1.62 6.68 -4 6 C-3.34 5.195625 -2.68 4.39125 -2 3.5625 C0.10254514 1.41038085 0.10254514 1.41038085 0 0 Z " fill="#CBC3E0" transform="translate(208,117)"/>
<path d="M0 0 C0.33 0.66 0.66 1.32 1 2 C-0.06880223 3.34500955 -1.15562508 4.67571438 -2.25 6 C-2.85328125 6.7425 -3.4565625 7.485 -4.078125 8.25 C-6 10 -6 10 -10 10 C-9.34 8.35 -8.68 6.7 -8 5 C-7.01 5 -6.02 5 -5 5 C-2.84982472 4.25827123 -2.84982472 4.25827123 -1 3 C-0.67 2.01 -0.34 1.02 0 0 Z " fill="#6A6B6E" transform="translate(261,218)"/>
<path d="M0 0 C1.32 0.33 2.64 0.66 4 1 C3.34 2.98 2.68 4.96 2 7 C-0.31 7.33 -2.62 7.66 -5 8 C-4.67 7.01 -4.34 6.02 -4 5 C-3.01 4.67 -2.02 4.34 -1 4 C-0.26676204 1.98491642 -0.26676204 1.98491642 0 0 Z " fill="#5E5C67" transform="translate(216,165)"/>
<path d="M0 0 C0.33 0 0.66 0 1 0 C1.33 1.98 1.66 3.96 2 6 C-0.97 6 -3.94 6 -7 6 C-6.34 4.35 -5.68 2.7 -5 1 C-4.01 1.66 -3.02 2.32 -2 3 C-1.34 2.01 -0.68 1.02 0 0 Z " fill="#99B5E6" transform="translate(377,377)"/>
<path d="M0 0 C0.65355469 0.58007812 0.65355469 0.58007812 1.3203125 1.171875 C5.05744652 4.43984501 8.8076016 7.34140589 13 10 C12.01 10.66 11.02 11.32 10 12 C2.15820312 5.5546875 2.15820312 5.5546875 0 2 C0 1.34 0 0.68 0 0 Z " fill="#23262C" transform="translate(322,292)"/>
<path d="M0 0 C0.33 0 0.66 0 1 0 C0.9175 1.093125 0.835 2.18625 0.75 3.3125 C0.56637705 7.03627334 0.56637705 7.03627334 3 8.75 C3.66 9.1625 4.32 9.575 5 10 C5 10.99 5 11.98 5 13 C3.68 13 2.36 13 1 13 C0.67 13.66 0.34 14.32 0 15 C-0.19601608 13.25093341 -0.38147403 11.50068154 -0.5625 9.75 C-0.66691406 8.77546875 -0.77132812 7.8009375 -0.87890625 6.796875 C-0.98974468 4.2368648 -0.77738092 2.41851841 0 0 Z " fill="#73678F" transform="translate(161,132)"/>
<path d="M0 0 C0 2.31 0 4.62 0 7 C-0.66 6.34 -1.32 5.68 -2 5 C-5.16666667 6.83333333 -5.16666667 6.83333333 -7 10 C-7.33 8.35 -7.66 6.7 -8 5 C-6.8562364 4.16382818 -5.70992861 3.33113541 -4.5625 2.5 C-3.92441406 2.0359375 -3.28632813 1.571875 -2.62890625 1.09375 C-1 0 -1 0 0 0 Z " fill="#918D9E" transform="translate(220,133)"/>
<path d="M0 0 C4.875 4.75 4.875 4.75 6 7 C3.36 7 0.72 7 -2 7 C-1.34 4.69 -0.68 2.38 0 0 Z " fill="#DFDFE6" transform="translate(243,376)"/>
<path d="M0 0 C4.875 4.75 4.875 4.75 6 7 C3.36 7 0.72 7 -2 7 C-1.34 4.69 -0.68 2.38 0 0 Z " fill="#CEC9DE" transform="translate(219,376)"/>
<path d="M0 0 C0.66 0 1.32 0 2 0 C2 0.99 2 1.98 2 3 C1.34 3 0.68 3 0 3 C0 3.66 0 4.32 0 5 C0.99 4.67 1.98 4.34 3 4 C3.33 5.65 3.66 7.3 4 9 C2.02 8.34 0.04 7.68 -2 7 C-2 7.66 -2 8.32 -2 9 C-2.66 8.67 -3.32 8.34 -4 8 C-2.68 5.36 -1.36 2.72 0 0 Z " fill="#312E38" transform="translate(193,373)"/>
<path d="M0 0 C2.78877083 2.78877083 3.15157432 5.20624813 3.1875 9 C3.20167969 9.680625 3.21585937 10.36125 3.23046875 11.0625 C3 13 3 13 1 16 C0.63913128 13.52163716 0.28601843 11.04260213 -0.0625 8.5625 C-0.16626953 7.85544922 -0.27003906 7.14839844 -0.37695312 6.41992188 C-0.62689163 4.61864093 -0.81801314 2.80940959 -1 1 C-0.67 0.67 -0.34 0.34 0 0 Z " fill="#3A404D" transform="translate(344,277)"/>
<path d="M0 0 C2.02652126 1.95664122 3.87252146 3.8194054 5.5 6.125 C7.15715045 8.19643807 8.57246138 8.99550126 11 10 C10.01 10.66 9.02 11.32 8 12 C6.86874978 10.92319498 5.74525081 9.83824365 4.625 8.75 C3.99851562 8.14671875 3.37203125 7.5434375 2.7265625 6.921875 C1.02689839 5.0299412 0.01540134 3.31798691 -1 1 C-0.67 0.67 -0.34 0.34 0 0 Z " fill="#A0B0CC" transform="translate(322,288)"/>
<path d="M0 0 C-0.99 0.33 -1.98 0.66 -3 1 C-2.67 1.66 -2.34 2.32 -2 3 C-4.8125 4.125 -4.8125 4.125 -8 5 C-8.99 4.34 -9.98 3.68 -11 3 C-7.6562111 -0.84535724 -4.83651161 -1.55459302 0 0 Z " fill="#C7BEDD" transform="translate(212,245)"/>
<path d="M0 0 C0.33 0.66 0.66 1.32 1 2 C-0.2739589 4.03833424 -1.61061923 6.03852126 -3 8 C-3.66 8 -4.32 8 -5 8 C-5 7.34 -5 6.68 -5 6 C-5.66 6 -6.32 6 -7 6 C-7.33 4.35 -7.66 2.7 -8 1 C-7.34 2.32 -6.68 3.64 -6 5 C-5.34 5 -4.68 5 -4 5 C-3.67 4.01 -3.34 3.02 -3 2 C-2.01 1.34 -1.02 0.68 0 0 Z " fill="#DDDFE4" transform="translate(257,214)"/>
<path d="M0 0 C0.763125 0.0825 1.52625 0.165 2.3125 0.25 C1.3125 3.25 1.3125 3.25 -0.6875 4.25 C-0.6875 5.24 -0.6875 6.23 -0.6875 7.25 C-2.0075 7.25 -3.3275 7.25 -4.6875 7.25 C-5.0175 6.26 -5.3475 5.27 -5.6875 4.25 C-4.12435347 1.21054842 -3.46963346 0.3227566 0 0 Z " fill="#78859E" transform="translate(339.6875,162.75)"/>
<path d="M0 0 C1.32 0 2.64 0 4 0 C4.3125 2.75 4.3125 2.75 4 6 C1.5 8.375 1.5 8.375 -1 10 C-1.33 9.34 -1.66 8.68 -2 8 C-1.34 8 -0.68 8 0 8 C0 5.36 0 2.72 0 0 Z " fill="#B3C5E7" transform="translate(330,156)"/>
<path d="M0 0 C0.66 0 1.32 0 2 0 C2.66 1.32 3.32 2.64 4 4 C4.99 4 5.98 4 7 4 C6.34 5.32 5.68 6.64 5 8 C4.01 7.34 3.02 6.68 2 6 C1.34 6.99 0.68 7.98 0 9 C0 6.03 0 3.06 0 0 Z " fill="#2A313F" transform="translate(370,373)"/>
<path d="M0 0 C0.99 0 1.98 0 3 0 C4.46726798 3.81489674 3.43336419 6.29011622 2 10 C0.04224922 7.06337384 -0.56073149 5.4262944 -1 2 C-0.67 1.34 -0.34 0.68 0 0 Z " fill="#CCC8DC" transform="translate(222,350)"/>
<path d="M0 0 C0.66 0 1.32 0 2 0 C2.309375 0.9590625 2.309375 0.9590625 2.625 1.9375 C3.89538209 4.34925077 3.89538209 4.34925077 7.125 4.75 C8.07375 4.8325 9.0225 4.915 10 5 C6.5980513 7.09350689 3.94727588 7.17942163 0 7 C0 4.69 0 2.38 0 0 Z " fill="#34313D" transform="translate(185,329)"/>
<path d="M0 0 C-1.44472346 3.80881639 -3.32603071 5.29742886 -7 7 C-7.99 6.67 -8.98 6.34 -10 6 C-4.4 0 -4.4 0 0 0 Z " fill="#C5BDD9" transform="translate(216,251)"/>
<path d="M0 0 C1.65 0.33 3.3 0.66 5 1 C5.33 1.99 5.66 2.98 6 4 C5.67 4.66 5.34 5.32 5 6 C2.69 5.67 0.38 5.34 -2 5 C-1.34 3.35 -0.68 1.7 0 0 Z " fill="#68696B" transform="translate(252,245)"/>
<path d="M0 0 C-0.66 2.31 -1.32 4.62 -2 7 C-2.33 6.01 -2.66 5.02 -3 4 C-3.99 4.33 -4.98 4.66 -6 5 C-6 4.34 -6 3.68 -6 3 C-7.65 2.67 -9.3 2.34 -11 2 C-9.66666667 1.66666667 -8.33333333 1.33333333 -7 1 C-6.319375 0.814375 -5.63875 0.62875 -4.9375 0.4375 C-3 0 -3 0 0 0 Z " fill="#79718D" transform="translate(190,175)"/>
<path d="M0 0 C0.66 0 1.32 0 2 0 C2 2.97 2 5.94 2 9 C0 9 0 9 -1.625 7.5 C-2.07875 7.005 -2.5325 6.51 -3 6 C-3.33 6.99 -3.66 7.98 -4 9 C-4 7.02 -4 5.04 -4 3 C-2.68 3 -1.36 3 0 3 C0 2.01 0 1.02 0 0 Z " fill="#252329" transform="translate(208,373)"/>
<path d="M0 0 C1.2065625 0.0309375 1.2065625 0.0309375 2.4375 0.0625 C2.4375 0.7225 2.4375 1.3825 2.4375 2.0625 C1.1175 2.0625 -0.2025 2.0625 -1.5625 2.0625 C-1.5625 3.0525 -1.5625 4.0425 -1.5625 5.0625 C-0.5725 5.3925 0.4175 5.7225 1.4375 6.0625 C0.1175 6.0625 -1.2025 6.0625 -2.5625 6.0625 C-2.8925 7.3825 -3.2225 8.7025 -3.5625 10.0625 C-3.58939216 8.58343108 -3.60884621 7.10422517 -3.625 5.625 C-3.63660156 4.80128906 -3.64820313 3.97757812 -3.66015625 3.12890625 C-3.51340586 0.02366796 -3.12550237 0.07623177 0 0 Z " fill="#2D313A" transform="translate(332.5625,371.9375)"/>
<path d="M0 0 C5.02254631 -0.2954439 7.89542386 0.01485372 12 3 C8.75370153 4.08209949 8.12563502 3.78140875 5 3 C4.01 3.33 3.02 3.66 2 4 C1.34 2.68 0.68 1.36 0 0 Z " fill="#B0AEB9" transform="translate(229,251)"/>
<path d="M0 0 C1.32 0.33 2.64 0.66 4 1 C1.6892779 8.5273523 1.6892779 8.5273523 -1.1875 10.5 C-1.785625 10.665 -2.38375 10.83 -3 11 C-2.67 9.35 -2.34 7.7 -2 6 C-1.34 6.33 -0.68 6.66 0 7 C0 4.69 0 2.38 0 0 Z " fill="#8391AA" transform="translate(333,155)"/>
<path d="M0 0 C0.33 0 0.66 0 1 0 C1 3.63 1 7.26 1 11 C0.34 11 -0.32 11 -1 11 C-1 10.34 -1 9.68 -1 9 C-2.32 9.33 -3.64 9.66 -5 10 C-4.34 8.68 -3.68 7.36 -3 6 C-2.34 6 -1.68 6 -1 6 C-0.67 4.02 -0.34 2.04 0 0 Z " fill="#303135" transform="translate(282,223)"/>
<path d="M0 0 C2.50037734 2.17424117 3.43628586 3.73045798 4 7 C3.01 7.495 3.01 7.495 2 8 C0.29115995 6.37660195 -1.37446717 4.70680947 -3 3 C-3 2.34 -3 1.68 -3 1 C-2.01 0.67 -1.02 0.34 0 0 Z " fill="#83779D" transform="translate(174,135)"/>
<path d="M0 0 C2.31 0.33 4.62 0.66 7 1 C7.33 2.65 7.66 4.3 8 6 C5.36 4.68 2.72 3.36 0 2 C0 1.34 0 0.68 0 0 Z " fill="#BDB2DA" transform="translate(187,124)"/>
<path d="M0 0 C0 1.65 0 3.3 0 5 C-2.97 4.01 -5.94 3.02 -9 2 C-9 1.67 -9 1.34 -9 1 C-2.25 0 -2.25 0 0 0 Z " fill="#595464" transform="translate(204,270)"/>
<path d="M0 0 C0.66 0.33 1.32 0.66 2 1 C1.01 1.33 0.02 1.66 -1 2 C-1 2.66 -1 3.32 -1 4 C-0.34 4.66 0.32 5.32 1 6 C-0.98 6.66 -2.96 7.32 -5 8 C-4.67 7.01 -4.34 6.02 -4 5 C-4.66 4.67 -5.32 4.34 -6 4 C-4.02 2.68 -2.04 1.36 0 0 Z " fill="#757083" transform="translate(208,253)"/>
<path d="M0 0 C1 3 1 3 -0.4375 6.1875 C-1.2109375 7.5796875 -1.2109375 7.5796875 -2 9 C-2.99 9 -3.98 9 -5 9 C-3.90931332 5.22454612 -3.0916909 2.52956528 0 0 Z " fill="#060607" transform="translate(321,245)"/>
<path d="M0 0 C2.97 0 5.94 0 9 0 C9 0.99 9 1.98 9 3 C6.36 3 3.72 3 1 3 C0.67 2.01 0.34 1.02 0 0 Z " fill="#9489AE" transform="translate(177,174)"/>
<path d="M0 0 C1.32 0.33 2.64 0.66 4 1 C3.625 2.9375 3.625 2.9375 3 5 C2.01 5.495 2.01 5.495 1 6 C0.01 5.34 -0.98 4.68 -2 4 C-2 3.34 -2 2.68 -2 2 C-1.34 2 -0.68 2 0 2 C0 1.34 0 0.68 0 0 Z " fill="#7A7687" transform="translate(208,166)"/>
<path d="M0 0 C0.99 0.33 1.98 0.66 3 1 C3 3 3 3 1.125 4.9375 C0.42375 5.618125 -0.2775 6.29875 -1 7 C-1.99 8.485 -1.99 8.485 -3 10 C-3 8.68 -3 7.36 -3 6 C-3.66 5.67 -4.32 5.34 -5 5 C-3.35 3.35 -1.7 1.7 0 0 Z " fill="#645B78" transform="translate(175,153)"/>
<path d="M0 0 C0.33 2.31 0.66 4.62 1 7 C-2.465 5.02 -2.465 5.02 -6 3 C-3.375 0 -3.375 0 0 0 Z " fill="#6B6679" transform="translate(202,150)"/>
<path d="M0 0 C2.97 0 5.94 0 9 0 C9 3 9 3 8 5 C2.25 3.375 2.25 3.375 0 0 Z " fill="#72668E" transform="translate(156,110)"/>
<path d="M0 0 C0.99 0.33 1.98 0.66 3 1 C2 4 2 4 -0.0625 5.1875 C-0.701875 5.455625 -1.34125 5.72375 -2 6 C-2.33 4.68 -2.66 3.36 -3 2 C-2.01 1.34 -1.02 0.68 0 0 Z " fill="#ACA1C5" transform="translate(193,273)"/>
<path d="M0 0 C0.66 0 1.32 0 2 0 C3.99785435 4.1205746 4.17835515 7.45194365 4 12 C3.67 12 3.34 12 3 12 C2.690625 11.030625 2.38125 10.06125 2.0625 9.0625 C1.30476658 6.15934208 1.30476658 6.15934208 0 5 C-0.04063832 3.33382885 -0.042721 1.66611905 0 0 Z " fill="#827F8C" transform="translate(221,256)"/>
<path d="M0 0 C0.99 0.33 1.98 0.66 3 1 C3.33 1.99 3.66 2.98 4 4 C4.66 4.66 5.32 5.32 6 6 C3.03824877 5.38722388 1.61941217 4.74627478 -1 3 C-1.33 3.66 -1.66 4.32 -2 5 C-2 2 -2 2 0 0 Z " fill="#48474C" transform="translate(227,250)"/>
<path d="M0 0 C0.33 0 0.66 0 1 0 C0.67 3.63 0.34 7.26 0 11 C-0.99 10.67 -1.98 10.34 -3 10 C-2.69201674 8.51988629 -2.378482 7.04092675 -2.0625 5.5625 C-1.88847656 4.73878906 -1.71445312 3.91507813 -1.53515625 3.06640625 C-1 1 -1 1 0 0 Z " fill="#161719" transform="translate(281,234)"/>
<path d="M0 0 C0.99 0.33 1.98 0.66 3 1 C1.75023244 4.65316671 1.32901247 5.78065836 -2 8 C-2 6 -2 4 -2 2 C-1.34 2 -0.68 2 0 2 C0 1.34 0 0.68 0 0 Z " fill="#9DB1D5" transform="translate(346,159)"/>
<path d="M0 0 C1.98 0 3.96 0 6 0 C6 0.66 6 1.32 6 2 C5.01 2 4.02 2 3 2 C3 4.64 3 7.28 3 10 C2.34 9.67 1.68 9.34 1 9 C1.33 6.69 1.66 4.38 2 2 C1.34 2 0.68 2 0 2 C0 1.34 0 0.68 0 0 Z " fill="#2E323A" transform="translate(317,372)"/>
<path d="M0 0 C1.67542976 0.28604898 3.34385343 0.61781233 5 1 C4.34 2.32 3.68 3.64 3 5 C2.01 5 1.02 5 0 5 C-0.5625 3.0625 -0.5625 3.0625 -1 1 C-0.67 0.67 -0.34 0.34 0 0 Z " fill="#5F6E87" transform="translate(358,372)"/>
<path d="M0 0 C1.98 0.495 1.98 0.495 4 1 C3.67 2.32 3.34 3.64 3 5 C1.68 4.67 0.36 4.34 -1 4 C-0.67 2.68 -0.34 1.36 0 0 Z " fill="#7B7688" transform="translate(205,372)"/>
<path d="M0 0 C1.65 0 3.3 0 5 0 C5 0.99 5 1.98 5 3 C3.02 3 1.04 3 -1 3 C-1 3.66 -1 4.32 -1 5 C-1.99 4.67 -2.98 4.34 -4 4 C-3.34 4 -2.68 4 -2 4 C-2 3.34 -2 2.68 -2 2 C-1.34 2 -0.68 2 0 2 C0 1.34 0 0.68 0 0 Z " fill="#9EB5DE" transform="translate(354,171)"/>
<path d="M0 0 C0.75 1.75 0.75 1.75 1 4 C-0.9375 6.25 -0.9375 6.25 -3 8 C-3.66 7.67 -4.32 7.34 -5 7 C-3.70700306 4.11562221 -2.34058637 2.12780579 0 0 Z " fill="#BBB6CC" transform="translate(218,136)"/>
<path d="M0 0 C3.465 1.98 3.465 1.98 7 4 C7 4.66 7 5.32 7 6 C4.69 5.34 2.38 4.68 0 4 C0 2.68 0 1.36 0 0 Z " fill="#A0B6DD" transform="translate(347,184)"/>
<path d="M0 0 C0.66 0 1.32 0 2 0 C3.625 2 3.625 2 5 4 C4.67 4.66 4.34 5.32 4 6 C3.01 5.34 2.02 4.68 1 4 C0.67 5.32 0.34 6.64 0 8 C0 7.01 0 6.02 0 5 C-0.66 4.67 -1.32 4.34 -2 4 C-1.34 4 -0.68 4 0 4 C0 2.68 0 1.36 0 0 Z " fill="#9B90B6" transform="translate(183,149)"/>
<path d="M0 0 C1 3 1 3 0 6 C0.66 6 1.32 6 2 6 C1.67 7.65 1.34 9.3 1 11 C-1 10 -1 10 -1.75 8.3125 C-2.08937645 5.17326781 -1.12469641 2.91097894 0 0 Z " fill="#9D92B7" transform="translate(186,128)"/>
<path d="M0 0 C0.6875 1.625 0.6875 1.625 1 4 C-0.4375 7.25 -0.4375 7.25 -2 10 C-2.66 9.67 -3.32 9.34 -4 9 C-2.80100302 5.9168649 -1.52299523 2.93720508 0 0 Z " fill="#0B0D10" transform="translate(347,199)"/>
<path d="M0 0 C2.97 0.33 5.94 0.66 9 1 C6.07735566 2.46132217 4.07536854 3.34099246 1 4 C0.67 2.68 0.34 1.36 0 0 Z " fill="#7B89A2" transform="translate(333,177)"/>
<path d="M0 0 C1.98 0.99 1.98 0.99 4 2 C3.67 2.66 3.34 3.32 3 4 C2.32650839 5.66392045 1.6590841 7.33032028 1 9 C0.67 9 0.34 9 0 9 C0 6.03 0 3.06 0 0 Z " fill="#323234" transform="translate(241,373)"/>
<path d="M0 0 C0.66 0 1.32 0 2 0 C1.75 1.875 1.75 1.875 1 4 C-0.8125 5.375 -0.8125 5.375 -3 6 C-5.25 5.125 -5.25 5.125 -7 4 C-6.030625 3.71125 -5.06125 3.4225 -4.0625 3.125 C-0.89335797 2.35785318 -0.89335797 2.35785318 0 0 Z " fill="#161617" transform="translate(266,330)"/>
<path d="M0 0 C0.99 0.33 1.98 0.66 3 1 C3 3.64 3 6.28 3 9 C0.87491756 5.81237635 0.4979837 3.73487777 0 0 Z " fill="#DCDFE7" transform="translate(258,247)"/>
<path d="M0 0 C2.89932357 2.39509338 3.50168276 4.31245243 4 8 C3.01 8.66 2.02 9.32 1 10 C1.04125 9.236875 1.0825 8.47375 1.125 7.6875 C1.22080824 4.77281584 1.22080824 4.77281584 -1 2 C-0.67 1.34 -0.34 0.68 0 0 Z " fill="#414143" transform="translate(256,202)"/>
<path d="M0 0 C0.98120464 3.05263664 0.98120464 4.94736336 0 8 C-0.66 8 -1.32 8 -2 8 C-2.33 6.35 -2.66 4.7 -3 3 C-2.34 3 -1.68 3 -1 3 C-0.67 2.01 -0.34 1.02 0 0 Z " fill="#4E5562" transform="translate(326,166)"/>
<path d="M0 0 C0.66 0.66 1.32 1.32 2 2 C1.625 4.625 1.625 4.625 1 7 C-0.32 6.67 -1.64 6.34 -3 6 C-2.01 4.02 -1.02 2.04 0 0 Z " fill="#7E8AA1" transform="translate(328,165)"/>
<path d="M0 0 C0.66 0.33 1.32 0.66 2 1 C2.625 4.0625 2.625 4.0625 3 7 C1.68 6.34 0.36 5.68 -1 5 C-0.67 3.35 -0.34 1.7 0 0 Z " fill="#B1A2D3" transform="translate(175,130)"/>
<path d="M0 0 C1.65 0 3.3 0 5 0 C5.33 0.99 5.66 1.98 6 3 C3.69 3 1.38 3 -1 3 C-0.67 2.01 -0.34 1.02 0 0 Z " fill="#C1CEE6" transform="translate(304,380)"/>
<path d="M0 0 C2.4375 0.375 2.4375 0.375 5 1 C5.33 1.66 5.66 2.32 6 3 C3.36 3 0.72 3 -2 3 C-1.34 2.67 -0.68 2.34 0 2 C0 1.34 0 0.68 0 0 Z " fill="#BEB2D9" transform="translate(191,380)"/>
<path d="M0 0 C2.4375 0.375 2.4375 0.375 5 1 C5.33 1.66 5.66 2.32 6 3 C3.36 3 0.72 3 -2 3 C-1.34 2.67 -0.68 2.34 0 2 C0 1.34 0 0.68 0 0 Z " fill="#9D87CB" transform="translate(144,380)"/>
<path d="M0 0 C0.33 0 0.66 0 1 0 C1.125 3.375 1.125 3.375 1 7 C0.34 7.66 -0.32 8.32 -1 9 C-1.625 5.625 -1.625 5.625 -2 2 C-1.34 1.34 -0.68 0.68 0 0 Z " fill="#232A35" transform="translate(379,373)"/>
<path d="M0 0 C1.32 0 2.64 0 4 0 C4.33 1.32 4.66 2.64 5 4 C3.35 3.67 1.7 3.34 0 3 C0 2.01 0 1.02 0 0 Z " fill="#ABBEE0" transform="translate(333,352)"/>
<path d="M0 0 C0.33 0.99 0.66 1.98 1 3 C0.67 3.66 0.34 4.32 0 5 C-0.66 5 -1.32 5 -2 5 C-2.33 5.66 -2.66 6.32 -3 7 C-4 4 -4 4 -4 1 C-2.68 0.67 -1.36 0.34 0 0 Z " fill="#232226" transform="translate(219,239)"/>
<path d="M0 0 C1 2 1 2 0.44140625 3.9453125 C0.15136719 4.66460937 -0.13867188 5.38390625 -0.4375 6.125 C-0.72496094 6.84945312 -1.01242188 7.57390625 -1.30859375 8.3203125 C-1.53675781 8.87460938 -1.76492187 9.42890625 -2 10 C-2.33 10 -2.66 10 -3 10 C-3.36923077 3.47692308 -3.36923077 3.47692308 -1.5 1.0625 C-1.005 0.711875 -0.51 0.36125 0 0 Z " fill="#414243" transform="translate(251,220)"/>
<path d="M0 0 C2.375 -0.1875 2.375 -0.1875 5 0 C5.66 0.99 6.32 1.98 7 3 C5.1875 3.625 5.1875 3.625 3 4 C2.01 3.34 1.02 2.68 0 2 C0 1.34 0 0.68 0 0 Z " fill="#706685" transform="translate(173,171)"/>
<path d="M0 0 C0.99 0.33 1.98 0.66 3 1 C3 3.31 3 5.62 3 8 C0.37613513 4.93882432 0 4.26826873 0 0 Z " fill="#111214" transform="translate(282,160)"/>
<path d="M0 0 C0.66 0.33 1.32 0.66 2 1 C2 1.66 2 2.32 2 3 C1.34 3 0.68 3 0 3 C-0.33 4.65 -0.66 6.3 -1 8 C-1.66 7.67 -2.32 7.34 -3 7 C-2.38722388 4.03824877 -1.74627478 2.61941217 0 0 Z " fill="#AC9DCD" transform="translate(176,156)"/>
<path d="M0 0 C0.99 0.66 1.98 1.32 3 2 C2.67 2.66 2.34 3.32 2 4 C1.01 4.33 0.02 4.66 -1 5 C-1.66 4.67 -2.32 4.34 -3 4 C-2.67 3.01 -2.34 2.02 -2 1 C-1.34 1.33 -0.68 1.66 0 2 C0 1.34 0 0.68 0 0 Z " fill="#756793" transform="translate(157,115)"/>
</svg>
